<?xml version="1.0" encoding="UTF-8"?>
<!-- Generator: visioncortex VTracer 0.6.3 -->
<svg version="1.1" xmlns="http://www.w3.org/2000/svg" width="1280" height="1280">
<path d="M0 0 C0.82 -0 1.63 -0.01 2.47 -0.01 C3.81 -0.01 3.81 -0.01 5.17 -0 C6.12 -0 7.06 -0.01 8.03 -0.01 C11.15 -0.01 14.26 -0.01 17.38 -0.01 C19.55 -0.01 21.71 -0.01 23.87 -0.01 C28.41 -0.01 32.95 -0.01 37.48 -0 C43.3 0 49.12 -0 54.94 -0.01 C59.41 -0.01 63.88 -0.01 68.35 -0.01 C70.49 -0.01 72.64 -0.01 74.79 -0.01 C77.78 -0.01 80.78 -0.01 83.78 -0 C84.67 -0 85.56 -0.01 86.48 -0.01 C87.3 -0.01 88.11 -0 88.95 0 C89.66 0 90.37 0 91.1 0 C92.98 0.13 92.98 0.13 95.98 1.13 C98.88 1.31 101.76 1.45 104.66 1.56 C116.13 2.09 127.38 3.26 138.62 5.69 C141.24 6.18 143.82 6.42 146.48 6.63 C150.79 6.98 154.91 7.62 159.13 8.53 C161.95 9.12 164.78 9.63 167.62 10.14 C174.97 11.45 182.11 13.16 189.32 15.15 C194.05 16.41 198.82 17.41 203.61 18.41 C211.62 20.12 219.7 21.89 227.26 25.09 C231.13 26.57 235.11 27.41 239.14 28.35 C241.67 29.04 243.67 29.91 245.98 31.13 C247.58 31.59 249.19 32.06 250.8 32.5 C257.96 34.56 264.88 37 271.64 40.13 C274.32 41.27 277.02 42.17 279.79 43.06 C289.3 46.16 298.21 50.18 307.11 54.72 C309.72 56 312.32 57.09 315.04 58.13 C319.79 59.95 324.12 62.32 328.53 64.86 C330.72 65.99 332.57 66.66 334.98 67.13 C334.98 67.79 334.98 68.45 334.98 69.13 C335.63 69.21 336.29 69.28 336.97 69.37 C341.06 70.4 344.47 72.3 348.16 74.31 C348.92 74.72 349.68 75.13 350.46 75.55 C355.3 78.16 360.06 80.89 364.75 83.78 C368.43 86.01 372.2 88.07 375.98 90.13 C375.98 90.79 375.98 91.45 375.98 92.13 C376.55 92.24 377.13 92.36 377.72 92.48 C380.17 93.18 381.96 94.18 384.13 95.53 C384.91 96 385.68 96.48 386.48 96.98 C387.29 97.48 388.09 97.98 388.91 98.5 C390.51 99.49 392.1 100.48 393.69 101.46 C394.43 101.93 395.18 102.39 395.94 102.87 C397.62 103.91 399.33 104.89 401.04 105.85 C402 106.48 402 106.48 402.98 107.13 C402.98 107.79 402.98 108.45 402.98 109.13 C403.62 109.33 404.27 109.54 404.94 109.75 C409.21 111.69 412.81 114.38 416.6 117.13 C418.11 118.21 419.63 119.29 421.14 120.38 C421.81 120.86 422.47 121.34 423.16 121.83 C424.74 122.96 426.36 124.05 427.98 125.13 C427.98 125.79 427.98 126.45 427.98 127.13 C428.97 127.44 428.97 127.44 429.98 127.75 C434.05 129.62 437.66 132.1 440.98 135.13 C440.98 135.79 440.98 136.45 440.98 137.13 C441.72 137.4 442.46 137.66 443.23 137.94 C445.87 139.08 447.83 140.22 449.98 142.13 C449.98 142.79 449.98 143.45 449.98 144.13 C450.6 144.44 451.21 144.75 451.85 145.06 C453.23 145.75 454.6 146.44 455.98 147.13 C455.98 147.79 455.98 148.45 455.98 149.13 C456.55 149.38 457.13 149.64 457.72 149.91 C460.17 151.23 461.98 152.76 464.04 154.63 C466.31 156.69 468.41 158.42 470.98 160.13 C470.98 160.79 470.98 161.45 470.98 162.13 C471.64 162.13 472.3 162.13 472.98 162.13 C472.98 162.79 472.98 163.45 472.98 164.13 C473.55 164.4 474.13 164.66 474.73 164.94 C477.03 166.16 479 167.43 480.98 169.13 C480.98 169.79 480.98 170.45 480.98 171.13 C481.78 171.44 481.78 171.44 482.6 171.76 C485.9 173.66 488.39 176.26 491.06 178.94 C491.91 179.79 491.91 179.79 492.79 180.67 C493.99 181.87 495.19 183.07 496.39 184.28 C498.23 186.13 500.08 187.97 501.93 189.81 C503.1 190.98 504.26 192.14 505.43 193.31 C506.26 194.14 506.26 194.14 507.12 194.99 C510.98 198.9 510.98 198.9 510.98 201.13 C511.64 201.13 512.3 201.13 512.98 201.13 C514.67 202.77 514.67 202.77 516.54 204.94 C517.16 205.65 517.78 206.35 518.42 207.08 C519.98 209.13 519.98 209.13 520.98 212.13 C521.64 212.13 522.3 212.13 522.98 212.13 C524.49 213.83 525.94 215.59 527.35 217.38 C529.57 220.18 531.71 222.86 534.27 225.36 C535.98 227.13 535.98 227.13 535.98 229.13 C536.64 229.13 537.3 229.13 537.98 229.13 C540.98 232.59 540.98 232.59 540.98 235.13 C541.64 235.13 542.3 235.13 542.98 235.13 C544.27 236.59 544.27 236.59 545.6 238.5 C546.27 239.44 546.27 239.44 546.95 240.4 C547.98 242.13 547.98 242.13 547.98 244.13 C548.64 244.13 549.3 244.13 549.98 244.13 C551.42 245.86 552.79 247.67 554.1 249.5 C554.83 250.5 555.55 251.5 556.3 252.53 C557.98 255.13 557.98 255.13 557.98 257.13 C558.64 257.13 559.3 257.13 559.98 257.13 C562.98 261.51 562.98 261.51 562.98 264.13 C563.64 264.13 564.3 264.13 564.98 264.13 C566.44 266.01 567.78 267.89 569.1 269.88 C569.7 270.76 569.7 270.76 570.32 271.67 C571.54 273.49 572.76 275.31 573.98 277.13 C574.63 278.1 575.29 279.07 575.96 280.06 C577.98 283.07 579.98 286.1 581.98 289.13 C582.41 289.79 582.85 290.45 583.3 291.13 C588.3 298.72 593.22 306.27 597.45 314.33 C599.35 317.81 601.41 321.18 603.48 324.56 C606.72 329.91 609.67 335.3 612.39 340.94 C613.56 343.29 614.77 345.6 616.03 347.91 C620.79 356.64 624.96 365.47 628.8 374.65 C631.23 380.46 633.84 386.08 636.79 391.65 C638.12 394.42 639.04 397.21 639.98 400.13 C640.47 401.28 640.97 402.44 641.48 403.63 C642.82 406.77 643.9 409.89 644.98 413.13 C645.43 414.14 645.88 415.15 646.35 416.19 C648.23 420.48 649.47 424.94 650.81 429.42 C652.08 433.45 653.48 437.41 654.91 441.38 C658.89 452.46 662.14 463.7 664.98 475.13 C665.47 476.94 665.97 478.75 666.48 480.56 C667.59 484.61 668.57 488.65 669.44 492.75 C670.07 495.56 670.81 498.34 671.54 501.13 C672.64 505.48 673.34 509.66 673.73 514.12 C674.11 517.22 675.1 520.13 675.98 523.13 C677.17 528.64 678.03 534.13 678.48 539.75 C678.74 543.03 679.13 546.12 679.91 549.31 C682.47 560.09 683.18 571.24 683.64 582.28 C683.77 585.45 683.97 588.1 684.98 591.13 C685.07 592.51 685.1 593.89 685.1 595.27 C685.11 596.53 685.11 596.53 685.11 597.82 C685.11 598.75 685.11 599.67 685.11 600.62 C685.11 601.59 685.11 602.56 685.11 603.56 C685.12 606.78 685.11 610 685.11 613.22 C685.11 615.46 685.11 617.69 685.11 619.92 C685.11 624.61 685.11 629.29 685.11 633.97 C685.1 639.98 685.1 645.99 685.11 652 C685.11 656.61 685.11 661.22 685.11 665.84 C685.11 668.05 685.11 670.27 685.11 672.49 C685.12 675.58 685.11 678.67 685.11 681.77 C685.11 683.15 685.11 683.15 685.11 684.57 C685.11 685.41 685.11 686.24 685.1 687.11 C685.1 687.84 685.1 688.57 685.1 689.33 C684.98 691.13 684.98 691.13 683.98 693.13 C683.81 695.73 683.7 698.33 683.6 700.94 C683.27 708.21 682.52 715.36 681.48 722.56 C681.35 723.47 681.22 724.38 681.08 725.31 C680.57 728.72 680.07 731.85 678.98 735.13 C678.8 736.98 678.66 738.83 678.54 740.69 C678.01 747.56 676.89 754.08 674.91 760.69 C674.18 763.37 673.82 765.47 673.6 768.19 C673.11 773.46 671.57 778.36 670.01 783.4 C669.23 786.22 668.6 788.93 668.05 791.79 C666.89 797.81 665.33 803.71 663.73 809.63 C663.27 811.34 663.27 811.34 662.8 813.08 C660.38 821.9 657.62 830.55 654.63 839.19 C653.29 843.17 652.11 847.2 650.93 851.23 C649.81 854.63 648.39 857.84 646.98 861.13 C646 863.8 645.08 866.49 644.16 869.19 C641.84 875.89 639.26 882.38 636.4 888.87 C635.08 891.9 633.83 894.94 632.6 898 C630.38 903.37 627.83 908.53 625.2 913.71 C622.92 918.19 620.77 922.7 618.66 927.26 C614.89 935.43 610.75 943.16 606.02 950.8 C604.3 953.6 602.7 956.41 601.16 959.31 C596.84 967.39 592 975.19 587.24 983.02 C586.21 984.74 585.22 986.48 584.24 988.23 C583.82 988.86 583.41 989.48 582.98 990.13 C582.32 990.13 581.66 990.13 580.98 990.13 C580.71 990.85 580.44 991.57 580.16 992.31 C578.98 995.13 578.98 995.13 577.35 997.5 C575.13 1001.74 575.4 1005.13 576.72 1009.69 C579.22 1017.12 581.98 1024.42 584.91 1031.69 C585.33 1032.74 585.75 1033.78 586.18 1034.86 C588.93 1041.7 591.87 1048.43 594.98 1055.13 C597.5 1060.64 599.99 1066.16 602.36 1071.74 C605.44 1078.92 608.85 1085.82 612.57 1092.69 C615.62 1098.37 618.38 1104.15 621.08 1110 C623.71 1115.68 626.64 1121.14 629.73 1126.59 C630.98 1129.13 630.98 1129.13 630.98 1132.13 C631.64 1132.13 632.3 1132.13 632.98 1132.13 C633.59 1133.61 633.59 1133.61 634.22 1135.12 C635.99 1139.26 638.04 1143.22 640.16 1147.19 C640.56 1147.92 640.95 1148.66 641.35 1149.42 C644.53 1155.37 647.85 1161.24 651.25 1167.08 C655.98 1175.43 655.98 1175.43 655.98 1179.13 C656.64 1179.13 657.3 1179.13 657.98 1179.13 C658.39 1179.96 658.8 1180.79 659.22 1181.65 C659.76 1182.73 660.3 1183.82 660.85 1184.94 C661.39 1186.02 661.92 1187.1 662.47 1188.21 C663.95 1191.21 663.95 1191.21 665.98 1194.13 C665.98 1195.12 665.98 1196.11 665.98 1197.13 C666.64 1197.13 667.3 1197.13 667.98 1197.13 C675.32 1211.68 679.81 1225 675 1241.47 C672.63 1247.53 669.63 1253.48 664.98 1258.13 C664.32 1258.13 663.66 1258.13 662.98 1258.13 C662.98 1258.79 662.98 1259.45 662.98 1260.13 C651.63 1269.93 639.91 1272.6 625.13 1272.01 C616.32 1270.91 608.68 1266.28 600.98 1262.13 C599.71 1261.45 598.45 1260.78 597.18 1260.1 C595.32 1259.11 593.47 1258.12 591.62 1257.13 C586.49 1254.37 581.3 1251.77 576.09 1249.2 C571.23 1246.78 566.44 1244.26 561.66 1241.69 C554.9 1238.07 548.03 1234.75 541.08 1231.51 C533.51 1227.96 526.14 1224.04 518.77 1220.08 C512.5 1216.74 506.24 1213.79 499.61 1211.22 C496.65 1209.99 493.83 1208.58 490.98 1207.13 C486.59 1204.89 482.2 1202.96 477.61 1201.19 C474.51 1199.94 471.5 1198.54 468.48 1197.13 C459.79 1193.08 450.89 1189.7 441.93 1186.28 C439.76 1185.43 437.61 1184.52 435.48 1183.56 C431.14 1181.78 426.71 1180.46 422.22 1179.11 C411.37 1175.82 411.37 1175.82 407.98 1174.13 C402.45 1173.34 399.73 1173.93 395.16 1177.19 C394.33 1177.82 393.49 1178.46 392.63 1179.12 C389.89 1181.19 387.07 1183.04 384.16 1184.88 C382.86 1185.7 382.86 1185.7 381.52 1186.55 C380.68 1187.07 379.84 1187.59 378.98 1188.13 C378.11 1188.69 377.24 1189.25 376.34 1189.83 C373.98 1191.13 373.98 1191.13 370.98 1191.13 C370.98 1191.79 370.98 1192.45 370.98 1193.13 C363.02 1197.49 355.03 1201.79 347.02 1206.04 C344.92 1207.16 342.83 1208.27 340.73 1209.39 C316.57 1222.27 316.57 1222.27 306.53 1226.1 C303.48 1227.33 300.52 1228.72 297.54 1230.13 C292.62 1232.42 287.69 1234.41 282.57 1236.21 C280.13 1237.07 277.74 1238.02 275.35 1239 C269.34 1241.44 263.22 1243.54 257.09 1245.68 C253.76 1246.84 250.46 1248.07 247.16 1249.31 C242.42 1251.06 237.63 1252.29 232.7 1253.42 C230 1254.12 227.56 1255.08 224.98 1256.13 C222.78 1256.8 220.57 1257.44 218.35 1258.06 C217.12 1258.41 215.88 1258.76 214.61 1259.12 C213.41 1259.45 212.21 1259.78 210.98 1260.13 C209.97 1260.41 208.97 1260.69 207.93 1260.98 C203.12 1262.32 198.3 1263.55 193.42 1264.6 C190.45 1265.24 187.5 1265.94 184.54 1266.63 C179.04 1267.9 173.53 1269.07 167.98 1270.13 C166.75 1270.36 165.52 1270.6 164.26 1270.85 C151.91 1273.21 139.58 1275.15 127.07 1276.43 C123.01 1276.83 123.01 1276.83 119.01 1277.64 C116.81 1278.17 114.77 1278.32 112.5 1278.41 C111.67 1278.45 110.83 1278.48 109.97 1278.52 C108.22 1278.59 106.46 1278.66 104.71 1278.73 C103.88 1278.77 103.05 1278.81 102.19 1278.85 C101.05 1278.89 101.05 1278.89 99.88 1278.94 C97.89 1279.02 97.89 1279.02 95.98 1280.13 C94.63 1280.22 93.27 1280.25 91.92 1280.25 C90.65 1280.26 90.65 1280.26 89.35 1280.26 C88.42 1280.26 87.49 1280.26 86.53 1280.26 C85.55 1280.26 84.56 1280.26 83.55 1280.26 C80.3 1280.27 77.05 1280.26 73.79 1280.26 C71.54 1280.26 69.28 1280.26 67.03 1280.26 C62.3 1280.26 57.57 1280.26 52.84 1280.26 C46.77 1280.25 40.7 1280.25 34.63 1280.26 C29.97 1280.26 25.31 1280.26 20.65 1280.26 C18.42 1280.26 16.18 1280.26 13.94 1280.26 C10.81 1280.27 7.68 1280.26 4.56 1280.26 C3.16 1280.26 3.16 1280.26 1.74 1280.26 C0.89 1280.26 0.04 1280.26 -0.84 1280.25 C-1.58 1280.25 -2.32 1280.25 -3.08 1280.25 C-5.02 1280.13 -5.02 1280.13 -8.02 1279.13 C-9.47 1278.99 -10.92 1278.9 -12.37 1278.85 C-13.62 1278.79 -13.62 1278.79 -14.89 1278.73 C-15.76 1278.7 -16.63 1278.66 -17.52 1278.63 C-19.24 1278.56 -20.96 1278.49 -22.68 1278.41 C-23.44 1278.38 -24.2 1278.35 -24.99 1278.32 C-27.02 1278.13 -27.02 1278.13 -30.02 1277.13 C-31.39 1276.93 -32.77 1276.77 -34.15 1276.63 C-35.33 1276.5 -35.33 1276.5 -36.54 1276.38 C-37.36 1276.29 -38.18 1276.21 -39.02 1276.13 C-40.65 1275.96 -42.27 1275.8 -43.9 1275.63 C-44.62 1275.55 -45.34 1275.48 -46.08 1275.41 C-48.02 1275.13 -48.02 1275.13 -51.02 1274.13 C-52.58 1273.97 -54.15 1273.85 -55.71 1273.75 C-60.74 1273.33 -65.63 1272.56 -70.59 1271.63 C-71.64 1271.43 -71.64 1271.43 -72.72 1271.23 C-77.76 1270.26 -77.76 1270.26 -80.02 1269.13 C-81.26 1269.02 -82.5 1268.92 -83.77 1268.81 C-89.14 1268.27 -94.09 1266.72 -99.25 1265.17 C-104.37 1263.75 -109.52 1262.79 -114.75 1261.84 C-117.73 1261.19 -120.21 1260.27 -123.02 1259.13 C-125.62 1258.45 -128.22 1257.8 -130.84 1257.19 C-135.67 1256.02 -140.35 1254.77 -144.96 1252.89 C-147.65 1251.9 -150.38 1251.19 -153.15 1250.44 C-165.94 1246.86 -178.4 1242.03 -190.71 1237.06 C-192.76 1236.23 -194.81 1235.43 -196.86 1234.63 C-203.77 1231.93 -210.41 1229.02 -217.02 1225.62 C-220.2 1224.04 -223.43 1222.67 -226.71 1221.31 C-233.7 1218.37 -240.32 1214.88 -246.99 1211.28 C-250.34 1209.48 -253.73 1207.78 -257.15 1206.13 C-262.52 1203.48 -267.6 1200.44 -272.71 1197.32 C-277.05 1194.68 -281.42 1192.29 -286.02 1190.13 C-286.02 1189.47 -286.02 1188.81 -286.02 1188.13 C-286.6 1188.01 -287.17 1187.9 -287.76 1187.78 C-290.22 1187.07 -292.01 1186.08 -294.18 1184.73 C-295.34 1184.01 -295.34 1184.01 -296.53 1183.28 C-297.73 1182.52 -297.73 1182.52 -298.96 1181.75 C-300.55 1180.76 -302.15 1179.78 -303.74 1178.79 C-304.48 1178.33 -305.22 1177.86 -305.99 1177.38 C-307.66 1176.35 -309.37 1175.37 -311.09 1174.4 C-311.73 1173.98 -312.37 1173.56 -313.02 1173.13 C-313.02 1172.47 -313.02 1171.81 -313.02 1171.13 C-314.2 1170.66 -314.2 1170.66 -315.4 1170.19 C-318.02 1169.13 -318.02 1169.13 -320.02 1168.13 C-320.02 1167.47 -320.02 1166.81 -320.02 1166.13 C-320.54 1165.88 -321.05 1165.63 -321.59 1165.38 C-324.79 1163.73 -327.9 1161.93 -331.02 1160.13 C-331.02 1159.47 -331.02 1158.81 -331.02 1158.13 C-331.92 1157.94 -331.92 1157.94 -332.84 1157.75 C-335.02 1157.13 -335.02 1157.13 -338.02 1155.13 C-338.02 1154.47 -338.02 1153.81 -338.02 1153.13 C-339.09 1152.77 -339.09 1152.77 -340.18 1152.4 C-343.46 1150.93 -345.74 1149.08 -348.46 1146.75 C-351.46 1144.22 -354.38 1141.77 -357.71 1139.69 C-358.47 1139.17 -359.24 1138.66 -360.02 1138.13 C-360.02 1137.47 -360.02 1136.81 -360.02 1136.13 C-360.61 1135.86 -361.2 1135.59 -361.8 1135.31 C-364.02 1134.13 -365.68 1132.86 -367.55 1131.19 C-368.2 1130.63 -368.85 1130.06 -369.51 1129.48 C-370.18 1128.89 -370.84 1128.3 -371.52 1127.69 C-372.84 1126.52 -374.17 1125.36 -375.49 1124.19 C-376.11 1123.65 -376.72 1123.11 -377.35 1122.55 C-379.11 1121.01 -379.11 1121.01 -381.49 1119.34 C-382.25 1118.74 -382.25 1118.74 -383.02 1118.13 C-383.02 1117.47 -383.02 1116.81 -383.02 1116.13 C-383.62 1115.86 -384.21 1115.6 -384.82 1115.33 C-387.1 1114.08 -388.5 1112.82 -390.27 1110.94 C-392.62 1108.46 -395.07 1106.2 -397.66 1103.98 C-402.52 1099.76 -407.05 1095.25 -411.59 1090.69 C-412.4 1089.88 -413.21 1089.07 -414.04 1088.24 C-418.37 1083.9 -422.55 1079.5 -426.53 1074.83 C-428 1073.09 -428 1073.09 -429.72 1071.53 C-431.02 1070.13 -431.02 1070.13 -431.02 1068.13 C-431.68 1068.13 -432.34 1068.13 -433.02 1068.13 C-434.54 1066.43 -435.99 1064.67 -437.4 1062.88 C-439.62 1060.07 -441.75 1057.39 -444.31 1054.89 C-446.02 1053.13 -446.02 1053.13 -446.02 1051.13 C-446.68 1051.13 -447.34 1051.13 -448.02 1051.13 C-451.02 1047.67 -451.02 1047.67 -451.02 1045.13 C-451.68 1045.13 -452.34 1045.13 -453.02 1045.13 C-454.32 1043.53 -455.53 1041.87 -456.71 1040.19 C-459.93 1035.64 -463.26 1031.24 -466.77 1026.9 C-468.02 1025.13 -468.02 1025.13 -468.02 1023.13 C-468.68 1023.13 -469.34 1023.13 -470.02 1023.13 C-473.02 1018.74 -473.02 1018.74 -473.02 1016.13 C-473.68 1016.13 -474.34 1016.13 -475.02 1016.13 C-476.53 1014.23 -476.53 1014.23 -478.15 1011.75 C-478.96 1010.53 -478.96 1010.53 -479.78 1009.29 C-481.02 1007.13 -481.02 1007.13 -481.02 1005.13 C-481.68 1005.13 -482.34 1005.13 -483.02 1005.13 C-486.02 1000.74 -486.02 1000.74 -486.02 998.13 C-486.68 998.13 -487.34 998.13 -488.02 998.13 C-488.58 997.14 -489.13 996.15 -489.7 995.14 C-492.49 990.26 -495.53 985.54 -498.58 980.82 C-499.01 980.15 -499.44 979.47 -499.88 978.77 C-500.46 977.86 -500.46 977.86 -501.06 976.94 C-502.08 975.02 -502.58 973.25 -503.02 971.13 C-503.68 971.13 -504.34 971.13 -505.02 971.13 C-505.31 970.59 -505.61 970.06 -505.91 969.51 C-508.17 965.39 -510.5 961.32 -512.96 957.31 C-515.67 952.83 -518.02 948.23 -520.33 943.52 C-522.31 939.56 -524.38 935.66 -526.46 931.75 C-537.3 911.37 -537.3 911.37 -541 901.68 C-542.22 898.63 -543.62 895.67 -545.02 892.69 C-547.32 887.78 -549.3 882.85 -551.1 877.73 C-551.99 875.21 -552.96 872.73 -553.96 870.25 C-557.48 861.5 -560.93 852.91 -563.27 843.76 C-564.27 840.26 -565.62 836.95 -567.06 833.61 C-568.27 830.5 -569.14 827.35 -570.02 824.13 C-570.42 822.72 -570.81 821.3 -571.21 819.89 C-572.28 816.02 -573.36 812.14 -574.43 808.26 C-574.93 806.45 -575.44 804.64 -575.94 802.83 C-577.26 798.08 -578.46 793.33 -579.49 788.51 C-580.12 785.69 -580.86 782.92 -581.59 780.13 C-582.69 775.78 -583.38 771.6 -583.78 767.13 C-584.16 764.03 -585.13 761.12 -586.02 758.13 C-587.47 752.04 -588.25 746.06 -588.75 739.83 C-589.01 737.29 -589.43 734.87 -589.96 732.38 C-592.22 721.67 -593.24 710.94 -593.68 700.03 C-593.82 696.84 -594.01 694.17 -595.02 691.13 C-595.11 689.72 -595.15 688.31 -595.15 686.91 C-595.15 686.05 -595.16 685.19 -595.16 684.3 C-595.16 683.36 -595.15 682.42 -595.15 681.45 C-595.15 680.46 -595.16 679.47 -595.16 678.45 C-595.16 675.16 -595.16 671.88 -595.16 668.59 C-595.16 666.31 -595.16 664.04 -595.16 661.76 C-595.16 656.98 -595.16 652.21 -595.15 647.43 C-595.15 641.3 -595.15 635.17 -595.16 629.03 C-595.16 624.33 -595.16 619.63 -595.16 614.92 C-595.16 612.66 -595.16 610.4 -595.16 608.14 C-595.16 604.98 -595.16 601.83 -595.15 598.67 C-595.15 597.73 -595.16 596.79 -595.16 595.82 C-595.16 594.96 -595.15 594.1 -595.15 593.22 C-595.15 592.47 -595.15 591.73 -595.15 590.96 C-595.02 589.13 -595.02 589.13 -594.02 587.13 C-593.86 584.35 -593.74 581.59 -593.65 578.81 C-593.33 571.35 -592.6 564.02 -591.52 556.63 C-591.39 555.73 -591.26 554.82 -591.13 553.9 C-590.61 550.5 -590.11 547.39 -589.02 544.13 C-588.89 542.61 -588.79 541.09 -588.71 539.56 C-588.22 533.62 -586.96 527.98 -585.61 522.19 C-584.2 516.09 -583.05 509.97 -582.06 503.78 C-581.39 499.73 -580.35 496.01 -579.02 492.13 C-578.51 489.93 -578.04 487.72 -577.59 485.5 C-575.76 476.78 -573.82 468.14 -570.9 459.71 C-569.75 456.33 -568.7 452.92 -567.65 449.5 C-565.94 444.01 -564.2 438.53 -562.4 433.06 C-562.01 431.9 -561.63 430.73 -561.23 429.53 C-560.42 427.24 -559.53 424.97 -558.57 422.74 C-556.52 417.94 -554.86 413.03 -553.19 408.09 C-552.93 407.37 -552.68 406.64 -552.43 405.89 C-552.2 405.24 -551.98 404.59 -551.75 403.92 C-551.02 402.13 -551.02 402.13 -549.02 399.13 C-548.53 397.74 -548.07 396.35 -547.65 394.94 C-546.43 391.13 -544.89 387.73 -543.04 384.19 C-541.99 382.06 -541.12 379.91 -540.27 377.69 C-533.58 360.68 -525.02 344.01 -515.41 328.48 C-512.68 323.84 -510.37 318.97 -508.02 314.13 C-507.36 314.13 -506.7 314.13 -506.02 314.13 C-505.85 313.27 -505.85 313.27 -505.68 312.4 C-504.95 309.87 -503.9 307.97 -502.55 305.71 C-502.04 304.87 -501.54 304.04 -501.03 303.17 C-500.22 301.85 -500.22 301.85 -499.4 300.5 C-498.57 299.14 -498.57 299.14 -497.73 297.75 C-494.64 292.68 -491.5 287.7 -488.01 282.9 C-484.43 277.91 -481.01 272.8 -477.55 267.72 C-477.01 266.93 -476.47 266.14 -475.91 265.32 C-475.43 264.61 -474.94 263.9 -474.45 263.17 C-473.98 262.49 -473.51 261.82 -473.02 261.13 C-472.51 260.38 -472 259.63 -471.47 258.86 C-470.99 258.29 -470.51 257.72 -470.02 257.13 C-469.36 257.13 -468.7 257.13 -468.02 257.13 C-467.82 256.47 -467.61 255.81 -467.4 255.13 C-465.53 251.06 -463.05 247.44 -460.02 244.13 C-459.36 244.13 -458.7 244.13 -458.02 244.13 C-457.75 243.38 -457.49 242.64 -457.21 241.88 C-456.07 239.24 -454.93 237.27 -453.02 235.13 C-452.36 235.13 -451.7 235.13 -451.02 235.13 C-450.71 234.51 -450.4 233.89 -450.09 233.25 C-449.4 231.88 -448.71 230.5 -448.02 229.13 C-447.36 229.13 -446.7 229.13 -446.02 229.13 C-445.77 228.55 -445.51 227.97 -445.24 227.38 C-443.92 224.93 -442.39 223.12 -440.52 221.06 C-438.46 218.79 -436.73 216.69 -435.02 214.13 C-434.36 214.13 -433.7 214.13 -433.02 214.13 C-432.68 213.32 -432.68 213.32 -432.34 212.5 C-430.57 209.3 -428.49 206.84 -426.02 204.13 C-425.36 204.13 -424.7 204.13 -424.02 204.13 C-423.75 203.53 -423.48 202.94 -423.2 202.32 C-422.04 200.16 -420.89 198.74 -419.17 197.01 C-418.59 196.43 -418.02 195.85 -417.43 195.25 C-416.5 194.33 -416.5 194.33 -415.55 193.39 C-414.92 192.75 -414.28 192.12 -413.63 191.46 C-412.28 190.12 -410.94 188.77 -409.59 187.44 C-407.52 185.38 -405.47 183.31 -403.41 181.24 C-402.1 179.94 -400.8 178.63 -399.49 177.33 C-398.87 176.71 -398.26 176.09 -397.62 175.45 C-393.25 171.13 -393.25 171.13 -391.02 171.13 C-391.02 170.47 -391.02 169.81 -391.02 169.13 C-389.34 167.4 -389.34 167.4 -387.15 165.5 C-386.43 164.87 -385.71 164.24 -384.97 163.59 C-383.02 162.13 -383.02 162.13 -381.02 162.13 C-380.69 161.14 -380.36 160.15 -380.02 159.13 C-378.29 157.52 -376.49 155.99 -374.65 154.5 C-373.67 153.71 -372.69 152.91 -371.69 152.09 C-369.02 150.13 -369.02 150.13 -366.02 149.13 C-366.02 148.47 -366.02 147.81 -366.02 147.13 C-363.93 145.33 -361.84 143.66 -359.65 142 C-359.04 141.53 -358.44 141.07 -357.82 140.58 C-353.28 137.13 -353.28 137.13 -351.02 137.13 C-350.69 136.14 -350.36 135.15 -350.02 134.13 C-347.46 132.94 -347.46 132.94 -345.02 132.13 C-345.02 131.47 -345.02 130.81 -345.02 130.13 C-340.64 127.13 -340.64 127.13 -338.02 127.13 C-338.02 126.47 -338.02 125.81 -338.02 125.13 C-336.45 123.75 -336.45 123.75 -334.26 122.19 C-333.08 121.34 -333.08 121.34 -331.87 120.48 C-331.03 119.89 -330.2 119.3 -329.34 118.69 C-328.52 118.1 -327.7 117.52 -326.86 116.91 C-315.94 109.13 -315.94 109.13 -313.02 109.13 C-313.02 108.47 -313.02 107.81 -313.02 107.13 C-312.03 107.13 -311.04 107.13 -310.02 107.13 C-310.02 106.47 -310.02 105.81 -310.02 105.13 C-308.33 103.89 -308.33 103.89 -305.96 102.52 C-305.1 102.01 -304.24 101.5 -303.35 100.98 C-302.44 100.45 -301.53 99.92 -300.59 99.38 C-294.6 95.88 -288.73 92.31 -282.99 88.43 C-280.61 86.85 -278.17 85.46 -275.65 84.13 C-274.72 83.63 -273.79 83.13 -272.83 82.62 C-271.9 82.13 -270.98 81.63 -270.02 81.13 C-268.27 80.17 -266.52 79.21 -264.77 78.25 C-262.86 77.21 -260.94 76.17 -259.02 75.13 C-257.36 74.22 -257.36 74.22 -255.66 73.29 C-247.85 69.04 -239.93 65.12 -231.88 61.35 C-227.38 59.25 -222.94 57.09 -218.52 54.81 C-214.05 52.55 -209.54 50.77 -204.81 49.12 C-198.2 46.76 -191.77 43.94 -185.4 41 C-181.53 39.26 -177.62 38.06 -173.54 36.9 C-171.04 36.13 -168.68 35.2 -166.27 34.19 C-161.06 32.04 -155.72 30.57 -150.28 29.07 C-147.69 28.32 -145.22 27.5 -142.71 26.5 C-139.23 25.2 -135.93 24.4 -132.3 23.65 C-129.26 22.95 -126.35 21.93 -123.4 20.92 C-116.57 18.65 -109.63 16.99 -102.57 15.65 C-99.97 15.12 -97.45 14.45 -94.9 13.75 C-87.71 11.91 -80.41 10.79 -73.08 9.61 C-67.27 8.67 -61.49 7.66 -55.71 6.5 C-48.91 5.19 -42.12 4.41 -35.23 3.77 C-32 3.47 -29.11 3.16 -26.02 2.13 C-24.58 1.99 -23.13 1.9 -21.68 1.85 C-20.85 1.81 -20.01 1.77 -19.15 1.73 C-16.52 1.63 -16.52 1.63 -13.89 1.52 C-13.06 1.48 -12.23 1.45 -11.37 1.41 C-10.61 1.38 -9.84 1.35 -9.06 1.32 C-5.89 1.02 -3.24 0 0 0 Z M8.29 90.57 C7.43 90.61 6.58 90.65 5.7 90.69 C1.38 90.91 -2.77 91.36 -7.02 92.13 C-9.61 92.3 -12.19 92.44 -14.77 92.56 C-20.2 92.86 -25.4 93.44 -30.7 94.65 C-34.11 95.35 -37.53 95.61 -40.99 95.88 C-43.09 96.02 -43.09 96.02 -45.02 97.13 C-46.96 97.45 -48.89 97.73 -50.84 98 C-56.64 98.86 -62.29 100.05 -67.99 101.41 C-70.56 102.02 -73.12 102.56 -75.71 103.06 C-86.82 105.26 -97.85 107.47 -108.55 111.26 C-110.6 111.98 -112.68 112.6 -114.77 113.19 C-117.88 114.09 -120.83 115.16 -123.84 116.35 C-126.86 117.42 -129.94 118.25 -133.02 119.13 C-142.24 122.02 -151.15 125.3 -160.02 129.13 C-162.04 129.96 -164.06 130.8 -166.09 131.63 C-170.91 133.63 -175.66 135.77 -180.4 137.96 C-182.79 139.02 -185.19 139.96 -187.65 140.88 C-193.97 143.35 -199.86 146.67 -205.82 149.88 C-210.23 152.26 -214.71 154.47 -219.21 156.64 C-222.21 158.22 -225.03 159.98 -227.89 161.79 C-231.45 164.02 -235.08 166.13 -238.71 168.25 C-240.86 169.51 -243 170.77 -245.15 172.03 C-246.77 172.98 -248.4 173.89 -250.04 174.81 C-250.7 175.24 -251.35 175.68 -252.02 176.13 C-252.02 176.79 -252.02 177.45 -252.02 178.13 C-252.56 178.22 -253.11 178.32 -253.66 178.41 C-256.72 179.34 -259.08 180.85 -261.77 182.56 C-262.76 183.18 -263.74 183.8 -264.76 184.44 C-265.88 185.27 -265.88 185.27 -267.02 186.13 C-267.02 186.79 -267.02 187.45 -267.02 188.13 C-267.74 188.4 -268.47 188.66 -269.21 188.94 C-272.02 190.13 -274.51 191.4 -277.02 193.13 C-277.02 193.79 -277.02 194.45 -277.02 195.13 C-277.71 195.35 -278.4 195.58 -279.11 195.81 C-282.76 197.46 -285.59 199.69 -288.71 202.19 C-294.82 207.03 -294.82 207.03 -297.02 208.13 C-297.02 208.79 -297.02 209.45 -297.02 210.13 C-297.56 210.37 -298.1 210.62 -298.65 210.88 C-301.61 212.43 -304.32 214.16 -307.02 216.13 C-307.02 216.79 -307.02 217.45 -307.02 218.13 C-307.57 218.35 -308.11 218.58 -308.67 218.81 C-311.76 220.54 -314.07 222.77 -316.65 225.19 C-321.83 230.03 -321.83 230.03 -324.02 231.13 C-324.02 231.79 -324.02 232.45 -324.02 233.13 C-324.91 233.52 -324.91 233.52 -325.82 233.92 C-328.12 235.18 -329.54 236.47 -331.34 238.38 C-334.3 241.45 -337.41 244.19 -340.74 246.87 C-341.16 247.28 -341.59 247.7 -342.02 248.13 C-342.02 248.79 -342.02 249.45 -342.02 250.13 C-343.01 250.46 -344 250.79 -345.02 251.13 C-345.02 251.79 -345.02 252.45 -345.02 253.13 C-345.68 253.13 -346.34 253.13 -347.02 253.13 C-348.56 254.64 -348.56 254.64 -350.15 256.63 C-353.4 260.48 -356.87 263.99 -360.52 267.46 C-362.25 269 -362.25 269 -362.02 271.13 C-362.68 271.13 -363.34 271.13 -364.02 271.13 C-365.54 272.83 -366.99 274.59 -368.4 276.38 C-370.62 279.18 -372.75 281.86 -375.31 284.36 C-377.26 285.96 -377.26 285.96 -377.02 288.13 C-377.68 288.13 -378.34 288.13 -379.02 288.13 C-380.61 289.84 -380.61 289.84 -382.15 292 C-382.69 292.72 -383.23 293.44 -383.78 294.18 C-385.2 296.02 -385.2 296.02 -385.02 298.13 C-385.68 298.13 -386.34 298.13 -387.02 298.13 C-388.36 299.76 -389.62 301.46 -390.84 303.19 C-391.54 304.19 -392.25 305.19 -392.98 306.22 C-393.65 307.18 -394.33 308.14 -395.02 309.13 C-396.02 310.48 -397.02 311.84 -398.02 313.19 C-400.21 315.81 -400.21 315.81 -400.02 318.13 C-400.68 318.13 -401.34 318.13 -402.02 318.13 C-404.34 321.35 -404.34 321.35 -405.02 325.13 C-405.68 325.13 -406.34 325.13 -407.02 325.13 C-407.02 326.12 -407.02 327.11 -407.02 328.13 C-407.68 328.13 -408.34 328.13 -409.02 328.13 C-410.82 330.46 -410.82 330.46 -412.59 333.38 C-413.21 334.35 -413.83 335.33 -414.46 336.33 C-415.78 338.7 -416.56 340.49 -417.02 343.13 C-417.68 343.13 -418.34 343.13 -419.02 343.13 C-420.7 345.53 -422.25 347.93 -423.77 350.44 C-424.45 351.54 -424.45 351.54 -425.14 352.66 C-428.11 357.53 -430.94 362.47 -433.61 367.52 C-435.1 370.28 -436.71 372.94 -438.34 375.63 C-442.75 383.12 -446.32 391.02 -449.97 398.91 C-450.99 401.05 -452.04 403.17 -453.11 405.29 C-454.85 408.74 -456.4 412.25 -457.9 415.81 C-459.84 420.41 -461.87 424.94 -464.02 429.44 C-467.03 435.88 -469.35 442.48 -471.65 449.19 C-472.71 452.28 -473.88 455.3 -475.15 458.31 C-477.23 463.37 -478.64 468.57 -480.09 473.83 C-480.81 476.39 -481.59 478.88 -482.46 481.38 C-485.01 488.84 -486.97 496.51 -489.02 504.13 C-489.44 505.66 -489.44 505.66 -489.87 507.22 C-493.37 520.52 -495.74 534.21 -497.63 547.83 C-498.02 550.13 -498.02 550.13 -499.02 552.13 C-499.39 554.94 -499.72 557.74 -500.02 560.56 C-500.89 568.73 -500.89 568.73 -502.02 572.13 C-502.23 574.73 -502.4 577.33 -502.52 579.94 C-502.89 587.4 -502.89 587.4 -503.51 590.86 C-504.11 594.68 -504.38 598.47 -504.58 602.31 C-504.62 603.13 -504.66 603.95 -504.71 604.79 C-505.19 615.38 -505.17 625.98 -505.15 636.59 C-505.15 640.12 -505.15 643.66 -505.16 647.19 C-505.16 657.45 -505.11 667.69 -504.58 677.94 C-504.54 678.69 -504.5 679.44 -504.46 680.22 C-504.22 684.25 -503.72 688.15 -503.02 692.13 C-502.85 694.71 -502.71 697.29 -502.59 699.88 C-502.29 705.31 -501.71 710.5 -500.5 715.81 C-499.8 719.21 -499.54 722.63 -499.27 726.1 C-499.13 728.19 -499.13 728.19 -498.02 730.13 C-497.68 732.08 -497.37 734.04 -497.09 736 C-496.91 737.18 -496.73 738.35 -496.55 739.56 C-496.23 741.75 -495.91 743.94 -495.59 746.13 C-494.44 753.63 -492.57 760.84 -490.56 768.16 C-489.66 771.45 -488.84 774.76 -488.02 778.06 C-487.86 778.72 -487.69 779.38 -487.52 780.06 C-486.67 783.48 -485.83 786.91 -485.02 790.34 C-483.44 796.98 -481.73 803.35 -479.02 809.64 C-477.84 812.59 -476.93 815.58 -476.02 818.63 C-474.33 824.28 -472.29 829.68 -470.02 835.13 C-469.38 836.75 -468.73 838.38 -468.09 840 C-464.64 848.6 -461.07 857.1 -457.19 865.51 C-456.14 867.86 -455.23 870.22 -454.34 872.63 C-451.3 880.38 -447.13 887.64 -443.19 894.96 C-442.23 896.75 -441.27 898.55 -440.32 900.34 C-437.11 906.35 -433.58 912.13 -429.98 917.91 C-427.63 921.77 -425.47 925.7 -423.35 929.69 C-421.3 933.47 -421.3 933.47 -419.02 937.13 C-418.36 937.13 -417.7 937.13 -417.02 937.13 C-416.88 937.94 -416.88 937.94 -416.74 938.77 C-415.81 941.82 -414.3 944.18 -412.59 946.88 C-411.97 947.86 -411.35 948.85 -410.71 949.86 C-410.16 950.61 -409.6 951.36 -409.02 952.13 C-408.36 952.13 -407.7 952.13 -407.02 952.13 C-406.75 952.85 -406.49 953.57 -406.21 954.31 C-405.02 957.12 -403.75 959.61 -402.02 962.13 C-401.36 962.13 -400.7 962.13 -400.02 962.13 C-399.71 962.91 -399.4 963.69 -399.09 964.5 C-398.09 967.05 -398.09 967.05 -397.02 969.13 C-396.36 969.13 -395.7 969.13 -395.02 969.13 C-394.62 969.97 -394.62 969.97 -394.21 970.83 C-392.94 973.28 -391.53 975.57 -390.02 977.88 C-389.25 979.08 -389.25 979.08 -388.46 980.3 C-387.99 980.9 -387.51 981.51 -387.02 982.13 C-386.36 982.13 -385.7 982.13 -385.02 982.13 C-384.78 982.66 -384.53 983.2 -384.27 983.75 C-382.72 986.71 -380.99 989.42 -379.02 992.13 C-378.36 992.13 -377.7 992.13 -377.02 992.13 C-377.02 992.79 -377.02 993.45 -377.02 994.13 C-376.36 994.13 -375.7 994.13 -375.02 994.13 C-374.67 994.94 -374.67 994.94 -374.3 995.77 C-372.68 998.76 -370.67 1001.24 -368.52 1003.88 C-367.73 1004.86 -366.93 1005.85 -366.12 1006.86 C-365.08 1007.98 -365.08 1007.98 -364.02 1009.13 C-363.36 1009.13 -362.7 1009.13 -362.02 1009.13 C-361.63 1010.01 -361.63 1010.01 -361.23 1010.92 C-359.97 1013.23 -358.68 1014.64 -356.77 1016.44 C-353.7 1019.4 -350.96 1022.51 -348.28 1025.84 C-347.87 1026.27 -347.45 1026.69 -347.02 1027.13 C-346.36 1027.13 -345.7 1027.13 -345.02 1027.13 C-345.02 1027.79 -345.02 1028.45 -345.02 1029.13 C-343.63 1030.54 -343.63 1030.54 -341.84 1031.94 C-338.06 1035.07 -334.63 1038.45 -331.23 1041.99 C-330.6 1042.64 -329.98 1043.28 -329.34 1043.94 C-328.75 1044.54 -328.17 1045.15 -327.57 1045.77 C-326.12 1047.35 -326.12 1047.35 -324.02 1047.13 C-324.02 1047.79 -324.02 1048.45 -324.02 1049.13 C-322.33 1050.69 -320.57 1052.18 -318.77 1053.63 C-317.8 1054.42 -316.82 1055.22 -315.82 1056.03 C-313.57 1057.71 -311.58 1059.01 -309.02 1060.13 C-309.02 1060.79 -309.02 1061.45 -309.02 1062.13 C-306.85 1064.17 -306.85 1064.17 -304.15 1066.25 C-303.24 1066.98 -302.34 1067.7 -301.41 1068.45 C-299.24 1070.32 -299.24 1070.32 -297.02 1070.13 C-297.02 1070.79 -297.02 1071.45 -297.02 1072.13 C-295.29 1073.57 -293.48 1074.94 -291.65 1076.25 C-290.65 1076.98 -289.65 1077.7 -288.62 1078.45 C-286.26 1080.31 -286.26 1080.31 -284.02 1080.13 C-284.02 1080.79 -284.02 1081.45 -284.02 1082.13 C-280.8 1084.44 -280.8 1084.44 -277.02 1085.13 C-277.02 1085.79 -277.02 1086.45 -277.02 1087.13 C-275.31 1088.49 -275.31 1088.49 -273.15 1089.75 C-272.43 1090.2 -271.71 1090.64 -270.97 1091.1 C-269.09 1092.28 -269.09 1092.28 -267.02 1092.13 C-267.02 1092.79 -267.02 1093.45 -267.02 1094.13 C-264.85 1095.72 -264.85 1095.72 -262.15 1097.25 C-260.79 1098.06 -260.79 1098.06 -259.41 1098.88 C-257.18 1100.28 -257.18 1100.28 -255.02 1100.13 C-255.02 1100.79 -255.02 1101.45 -255.02 1102.13 C-254.03 1102.13 -253.04 1102.13 -252.02 1102.13 C-252.02 1102.79 -252.02 1103.45 -252.02 1104.13 C-251.05 1104.68 -250.07 1105.23 -249.07 1105.79 C-244.74 1108.26 -240.51 1110.88 -236.27 1113.5 C-226.73 1119.36 -217.04 1124.66 -207 1129.62 C-204.09 1131.09 -201.24 1132.66 -198.4 1134.25 C-194.23 1136.55 -190.06 1138.38 -185.62 1140.06 C-182.68 1141.27 -179.9 1142.67 -177.09 1144.13 C-172.37 1146.53 -167.67 1148.46 -162.68 1150.2 C-157.52 1152.01 -152.47 1154.12 -147.42 1156.2 C-142.67 1158.14 -137.98 1159.75 -133.02 1161.13 C-129.65 1162.32 -126.3 1163.61 -122.98 1164.95 C-118.63 1166.67 -114.68 1167.47 -110.02 1168.13 C-108.7 1168.54 -107.39 1168.98 -106.09 1169.44 C-101.07 1171.2 -95.95 1172.44 -90.78 1173.68 C-87.81 1174.4 -84.92 1175.16 -82.03 1176.15 C-78.45 1177.31 -74.84 1177.98 -71.15 1178.63 C-62.68 1180.14 -62.68 1180.14 -58.65 1181.25 C-54.79 1182.18 -51.07 1182.58 -47.12 1182.88 C-45.02 1183.13 -45.02 1183.13 -43.02 1184.13 C-39.84 1184.75 -36.61 1185.17 -33.4 1185.63 C-32.46 1185.76 -31.52 1185.9 -30.55 1186.03 C-23.46 1187.01 -16.42 1187.6 -9.27 1187.92 C-6.02 1188.13 -6.02 1188.13 -3.61 1188.62 C-1.15 1189.1 1.15 1189.32 3.65 1189.44 C4.55 1189.48 5.45 1189.52 6.37 1189.56 C7.33 1189.6 8.29 1189.64 9.29 1189.68 C10.3 1189.72 11.31 1189.77 12.36 1189.81 C22.57 1190.2 32.79 1190.28 43.01 1190.26 C46.04 1190.25 49.07 1190.26 52.1 1190.26 C62.13 1190.27 72.14 1190.12 82.16 1189.68 C83.08 1189.64 83.99 1189.6 84.93 1189.56 C89.05 1189.36 92.94 1189.04 96.98 1188.13 C100.42 1187.91 103.85 1187.74 107.3 1187.61 C112.13 1187.38 116.67 1186.64 121.4 1185.64 C125.77 1184.77 130.18 1184.29 134.6 1183.75 C142.78 1182.7 150.61 1181.17 158.57 1179.03 C161.47 1178.26 164.34 1177.62 167.29 1177.06 C171.71 1176.23 175.99 1175.06 180.32 1173.85 C182.74 1173.19 185.15 1172.64 187.6 1172.13 C191.36 1171.32 194.93 1170.21 198.54 1168.91 C200.57 1168.26 202.63 1167.72 204.7 1167.22 C209.17 1166.12 213.5 1164.68 217.85 1163.19 C222.75 1161.53 227.63 1159.9 232.6 1158.5 C236.28 1157.43 239.49 1155.95 242.87 1154.15 C245.25 1152.99 247.66 1152.12 250.16 1151.25 C255.56 1149.35 260.68 1147.01 265.85 1144.56 C268.57 1143.31 271.3 1142.19 274.1 1141.13 C278.78 1139.31 283.08 1136.98 287.43 1134.49 C289.91 1133.16 292.37 1132.16 294.98 1131.13 C297.43 1129.94 299.86 1128.73 302.29 1127.5 C302.93 1127.18 303.58 1126.85 304.24 1126.52 C305.82 1125.72 307.4 1124.93 308.98 1124.13 C308.98 1123.47 308.98 1122.81 308.98 1122.13 C309.49 1122.04 310.01 1121.95 310.54 1121.87 C313.97 1120.83 316.94 1119.08 320.04 1117.31 C320.73 1116.93 321.41 1116.54 322.12 1116.14 C330.33 1111.43 338.3 1106.32 346.26 1101.2 C347.98 1100.13 347.98 1100.13 349.98 1099.13 C349.98 1098.47 349.98 1097.81 349.98 1097.13 C350.8 1097 350.8 1097 351.63 1096.86 C354.71 1095.9 356.86 1094.25 359.48 1092.38 C368.88 1086.01 377.58 1082.32 388.98 1082.13 C390.87 1082.09 390.87 1082.09 392.8 1082.04 C405.51 1081.87 417.68 1082.62 429.98 1086.13 C430.31 1086.46 430.64 1086.79 430.98 1087.13 C431.95 1087.23 432.92 1087.33 433.91 1087.44 C437.98 1087.97 441.4 1089.43 445.16 1091.02 C448.29 1092.25 451.44 1093.23 454.66 1094.19 C459.29 1095.58 463.6 1097.11 467.98 1099.13 C471.58 1100.73 475.14 1102.21 478.9 1103.39 C485 1105.4 490.88 1107.93 496.79 1110.44 C498.44 1111.13 498.44 1111.13 500.12 1111.84 C506.74 1114.64 513.16 1117.67 519.52 1121.01 C521.98 1122.33 521.98 1122.33 524.98 1122.13 C523.45 1117.04 521.77 1112.55 519 1107.98 C517.4 1105.09 516.3 1102.01 515.11 1098.93 C512.55 1092.59 509.55 1086.44 506.62 1080.28 C504.01 1074.7 501.88 1069.13 500.07 1063.24 C499.18 1060.7 498.19 1058.35 497.08 1055.9 C494.85 1050.98 493.1 1045.95 491.41 1040.81 C491.11 1039.89 490.81 1038.97 490.49 1038.02 C485.95 1024.09 482.61 1010.34 482.66 995.63 C482.65 994.67 482.63 993.72 482.62 992.73 C482.61 979.16 487.32 968.54 495.04 957.69 C515.45 932.42 515.45 932.42 526.98 904.13 C527.64 904.13 528.3 904.13 528.98 904.13 C529.39 903.3 529.8 902.48 530.23 901.63 C530.8 900.47 531.38 899.32 531.98 898.13 C532.29 897.5 532.6 896.87 532.93 896.22 C534.59 892.9 536.25 889.58 537.94 886.27 C541.61 879.04 545.14 871.76 548.48 864.38 C549 863.23 549 863.23 549.54 862.07 C549.86 861.35 550.18 860.63 550.51 859.89 C550.93 858.95 550.93 858.95 551.37 857.98 C552.18 855.82 552.18 855.82 551.98 852.13 C552.64 852.13 553.3 852.13 553.98 852.13 C554.22 851.35 554.46 850.58 554.71 849.78 C557.78 840.24 557.78 840.24 559.98 836.19 C562.24 831.92 563.48 827.45 564.84 822.82 C566.11 818.68 567.56 814.63 569.04 810.56 C571.17 804.65 572.97 798.78 574.34 792.64 C574.98 790.13 574.98 790.13 575.96 787.73 C577.19 784.59 577.82 781.49 578.48 778.19 C579.16 774.78 579.85 771.51 580.98 768.21 C582.21 764.41 582.84 760.63 583.48 756.69 C584.13 752.63 584.8 748.71 585.98 744.77 C587.29 739.99 587.87 735.22 588.48 730.31 C589.17 724.83 589.88 719.39 591.04 713.98 C591.99 709.4 592.37 704.93 592.54 700.25 C592.86 692.61 592.86 692.61 593.47 690.16 C594.01 688 594.18 686.02 594.29 683.8 C594.33 682.95 594.37 682.1 594.41 681.23 C594.45 680.31 594.49 679.39 594.53 678.44 C594.57 677.47 594.62 676.5 594.66 675.5 C595.07 665.11 595.13 654.72 595.11 644.31 C595.1 641.13 595.11 637.94 595.11 634.76 C595.12 624.46 594.98 614.17 594.53 603.88 C594.49 602.97 594.45 602.06 594.41 601.12 C594.21 597.02 593.89 593.14 592.98 589.13 C592.83 586.8 592.7 584.46 592.6 582.13 C592.24 575.28 591.45 568.54 590.48 561.75 C590.28 560.37 590.28 560.37 590.08 558.96 C589.51 554.4 589.51 554.4 587.98 550.13 C587.8 548.59 587.66 547.05 587.54 545.5 C587.24 542.22 586.82 539.13 585.98 535.94 C585.03 532.33 584.5 528.81 583.98 525.13 C583.65 524.8 583.32 524.47 582.98 524.13 C582.67 522.82 582.41 521.51 582.16 520.19 C579.98 508.9 577.79 497.65 573.91 486.8 C572.41 482.49 571.24 478.1 570.05 473.7 C568.38 467.63 566.61 461.88 563.91 456.2 C562.62 453.34 561.71 450.41 560.75 447.43 C559.35 443.26 557.65 439.2 555.98 435.13 C555.58 434.17 555.19 433.2 554.79 432.21 C552.37 426.36 549.86 420.57 547.22 414.82 C546.41 413.07 545.62 411.32 544.83 409.56 C537.56 393.27 529.35 377.4 519.9 362.28 C517.56 358.44 515.41 354.53 513.3 350.56 C511.25 346.78 511.25 346.78 508.98 343.13 C508.32 343.13 507.66 343.13 506.98 343.13 C506.84 342.31 506.84 342.31 506.69 341.49 C505.77 338.43 504.25 336.07 502.54 333.38 C501.61 331.9 501.61 331.9 500.67 330.39 C500.11 329.64 499.55 328.9 498.98 328.13 C498.32 328.13 497.66 328.13 496.98 328.13 C496.71 327.41 496.44 326.68 496.16 325.94 C494.98 323.13 493.7 320.64 491.98 318.13 C491.32 318.13 490.66 318.13 489.98 318.13 C489.75 317.44 489.53 316.75 489.29 316.04 C487.64 312.39 485.41 309.56 482.91 306.44 C478.08 300.33 478.08 300.33 476.98 298.13 C476.32 298.13 475.66 298.13 474.98 298.13 C474.73 297.59 474.48 297.05 474.23 296.5 C472.67 293.54 470.94 290.83 468.98 288.13 C468.32 288.13 467.66 288.13 466.98 288.13 C466.98 287.47 466.98 286.81 466.98 286.13 C466.32 286.13 465.66 286.13 464.98 286.13 C464.74 285.59 464.5 285.04 464.26 284.49 C462.63 281.49 460.63 279.02 458.48 276.38 C457.68 275.39 456.89 274.41 456.07 273.39 C455.38 272.64 454.69 271.9 453.98 271.13 C453.32 271.13 452.66 271.13 451.98 271.13 C451.71 270.54 451.45 269.94 451.18 269.33 C449.92 267.03 448.63 265.61 446.73 263.81 C443.65 260.85 440.91 257.74 438.24 254.41 C437.61 253.78 437.61 253.78 436.98 253.13 C436.32 253.13 435.66 253.13 434.98 253.13 C434.65 252.14 434.32 251.15 433.98 250.13 C433.32 250.13 432.66 250.13 431.98 250.13 C431.98 249.47 431.98 248.81 431.98 248.13 C430.46 246.59 430.46 246.59 428.48 245 C424.63 241.75 421.12 238.28 417.64 234.63 C416.1 232.9 416.1 232.9 413.98 233.13 C413.98 232.47 413.98 231.81 413.98 231.13 C412.28 229.61 410.52 228.16 408.73 226.75 C405.92 224.53 403.24 222.4 400.74 219.84 C399.15 217.9 399.15 217.9 396.98 218.13 C396.98 217.47 396.98 216.81 396.98 216.13 C395.26 214.54 395.26 214.54 393.1 213 C392.38 212.46 391.66 211.92 390.92 211.37 C389.08 209.95 389.08 209.95 386.98 210.13 C386.98 209.47 386.98 208.81 386.98 208.13 C385.34 206.79 383.64 205.53 381.91 204.31 C380.91 203.61 379.91 202.9 378.88 202.17 C377.92 201.5 376.97 200.82 375.98 200.13 C374.62 199.13 373.27 198.13 371.91 197.13 C369.29 194.94 369.29 194.94 366.98 195.13 C366.98 194.47 366.98 193.81 366.98 193.13 C363.76 190.81 363.76 190.81 359.98 190.13 C359.98 189.47 359.98 188.81 359.98 188.13 C358.99 188.13 358 188.13 356.98 188.13 C356.98 187.47 356.98 186.81 356.98 186.13 C354.64 184.33 354.64 184.33 351.73 182.56 C350.75 181.94 349.78 181.32 348.77 180.69 C346.41 179.37 344.62 178.59 341.98 178.13 C341.98 177.47 341.98 176.81 341.98 176.13 C339.57 174.45 337.17 172.9 334.66 171.38 C333.93 170.93 333.2 170.48 332.45 170.01 C327.57 167.04 322.63 164.21 317.59 161.54 C314.83 160.05 312.16 158.44 309.48 156.81 C302.71 152.83 295.65 149.57 288.54 146.27 C284.79 144.52 281.1 142.7 277.41 140.81 C273.22 138.69 268.99 136.88 264.6 135.19 C261.54 133.95 258.58 132.54 255.6 131.13 C250.44 128.71 245.28 126.76 239.83 125.08 C236.98 124.13 236.98 124.13 233.59 122.67 C229.95 121.12 226.3 119.85 222.54 118.63 C218.67 117.36 214.81 116.11 211.04 114.56 C205.93 112.59 200.55 111.46 195.23 110.17 C191.09 109.16 186.97 108.1 182.85 107 C181.08 106.53 181.08 106.53 179.28 106.06 C177.19 105.47 175.12 104.82 173.07 104.1 C169.28 102.91 165.52 102.26 161.6 101.63 C157.28 100.92 153.02 100.17 148.77 99.07 C145.64 98.29 142.8 97.8 139.6 97.56 C135.18 97.23 135.18 97.23 132.98 96.13 C130.16 95.76 127.36 95.43 124.54 95.13 C116.38 94.26 116.38 94.26 112.98 93.13 C110.37 92.92 107.78 92.75 105.16 92.63 C97.68 92.25 97.68 92.25 94.31 91.64 C90.1 90.99 85.92 90.77 81.66 90.57 C80.75 90.53 79.84 90.49 78.9 90.44 C68.66 90.01 58.43 89.98 48.18 90 C44.98 90 41.78 90 38.57 89.99 C28.47 89.99 18.38 90.11 8.29 90.57 Z " fill="#000000" transform="translate(595.0230712890625,-0.126983642578125)"/>
</svg>
