<?xml version="1.0" encoding="UTF-8"?>
<!-- Generator: visioncortex VTracer 0.6.3 -->
<svg version="1.1" xmlns="http://www.w3.org/2000/svg" width="1280" height="1280">
<path d="M0 0 C1.1 -0 2.2 -0.01 3.33 -0.01 C5.17 -0 5.17 -0 7.05 -0 C8.99 -0 8.99 -0 10.97 -0 C14.6 -0.01 18.22 -0.01 21.84 -0 C25.78 -0 29.71 -0 33.64 -0.01 C40.54 -0.01 47.44 -0.01 54.34 -0.01 C64.6 -0 74.86 -0.01 85.12 -0.01 C103.45 -0.01 121.77 -0.01 140.09 -0.01 C156.13 -0.01 172.16 -0.01 188.19 -0.01 C189.25 -0.01 190.32 -0.01 191.41 -0.01 C195.72 -0.01 200.03 -0.01 204.34 -0.01 C244.8 -0.01 285.26 -0.01 325.72 -0 C361.71 0 397.69 -0 433.67 -0.01 C474.06 -0.01 514.45 -0.01 554.83 -0.01 C559.13 -0.01 563.44 -0.01 567.74 -0.01 C569.33 -0.01 569.33 -0.01 570.95 -0.01 C586.98 -0.01 603 -0.01 619.03 -0.01 C637.25 -0.01 655.46 -0.01 673.68 -0.01 C683.88 -0 694.09 -0 704.3 -0.01 C711.1 -0.01 717.91 -0.01 724.71 -0 C728.6 -0 732.48 -0 736.37 -0.01 C740.54 -0.01 744.71 -0.01 748.88 -0 C750.11 -0 751.33 -0.01 752.6 -0.01 C754.25 -0 754.25 -0 755.93 0 C756.89 0 757.84 0 758.83 0 C760.97 0.13 760.97 0.13 761.97 1.13 C763.38 1.43 764.79 1.69 766.22 1.94 C778.69 4.4 788.98 8.96 799.97 15.13 C801.29 15.8 802.62 16.48 803.97 17.13 C803.97 17.79 803.97 18.45 803.97 19.13 C804.56 19.25 805.16 19.37 805.78 19.5 C807.97 20.13 807.97 20.13 810.97 22.13 C810.97 22.79 810.97 23.45 810.97 24.13 C811.65 24.33 812.33 24.54 813.03 24.75 C820.11 28.06 825.05 34.22 829.97 40.13 C830.77 41.07 831.57 42.02 832.4 43 C833.97 45.13 833.97 45.13 833.97 47.13 C834.63 47.13 835.29 47.13 835.97 47.13 C837.69 49.55 839.28 51.97 840.84 54.5 C841.29 55.23 841.75 55.97 842.21 56.72 C845.43 62.02 847.94 67.27 849.97 73.13 C850.67 74.86 851.38 76.59 852.09 78.31 C858.84 95.32 859.12 113.28 859.09 131.32 C859.09 133.17 859.09 135.02 859.1 136.88 C859.1 141.97 859.1 147.06 859.09 152.15 C859.09 157.69 859.09 163.22 859.1 168.76 C859.1 178.47 859.1 188.17 859.1 197.88 C859.09 211.64 859.1 225.4 859.1 239.15 C859.1 264.11 859.1 289.07 859.1 314.02 C859.1 314.76 859.1 315.5 859.1 316.27 C859.1 317.01 859.1 317.75 859.1 318.51 C859.1 341.06 859.1 363.62 859.1 386.18 C859.1 387.69 859.1 389.2 859.1 390.71 C859.1 396.78 859.1 402.84 859.1 408.91 C859.1 425.88 859.1 442.85 859.1 459.81 C859.1 460.58 859.1 461.36 859.1 462.15 C859.1 486.77 859.1 511.39 859.1 536.01 C859.1 537.2 859.1 537.2 859.1 538.43 C859.1 551.39 859.1 564.36 859.1 577.33 C859.09 628.76 859.09 680.19 859.1 731.62 C859.1 744.59 859.1 757.55 859.1 770.51 C859.1 771.71 859.1 771.71 859.1 772.93 C859.1 797.53 859.1 822.12 859.1 846.71 C859.1 847.87 859.1 847.87 859.1 849.05 C859.1 866 859.1 882.94 859.1 899.89 C859.1 905.95 859.1 912.02 859.1 918.08 C859.1 919.59 859.1 921.1 859.1 922.6 C859.1 945.16 859.1 967.71 859.1 990.26 C859.1 991.37 859.1 991.37 859.1 992.5 C859.1 993.24 859.1 993.97 859.1 994.73 C859.1 1019.62 859.1 1044.5 859.1 1069.38 C859.1 1083.73 859.1 1098.08 859.1 1112.43 C859.1 1122.01 859.1 1131.59 859.1 1141.17 C859.09 1146.63 859.09 1152.09 859.1 1157.55 C859.1 1162.52 859.1 1167.49 859.09 1172.45 C859.09 1174.24 859.09 1176.03 859.09 1177.82 C859.13 1200.9 855.81 1224.38 840.97 1243.13 C840.31 1243.13 839.65 1243.13 838.97 1243.13 C838.7 1243.71 838.44 1244.29 838.16 1244.88 C834.79 1251.2 828.83 1257.04 822.97 1261.13 C822.31 1261.13 821.65 1261.13 820.97 1261.13 C820.97 1261.79 820.97 1262.45 820.97 1263.13 C819.98 1263.13 818.99 1263.13 817.97 1263.13 C817.97 1263.79 817.97 1264.45 817.97 1265.13 C794.77 1278.05 794.77 1278.05 782.97 1279.13 C782.64 1279.46 782.31 1279.79 781.97 1280.13 C776.83 1280.42 771.68 1280.44 766.53 1280.48 C764.81 1280.49 763.08 1280.52 761.35 1280.56 C745.97 1280.9 733.3 1278.26 719.47 1271.31 C718.5 1270.85 718.5 1270.85 717.52 1270.37 C715.99 1269.63 714.48 1268.88 712.97 1268.13 C712.97 1267.47 712.97 1266.81 712.97 1266.13 C712.24 1265.88 711.52 1265.63 710.78 1265.37 C700.77 1260.95 692.65 1251.09 685.02 1243.41 C683.86 1242.25 682.7 1241.08 681.53 1239.92 C678.36 1236.75 675.2 1233.57 672.03 1230.4 C668.61 1226.96 665.18 1223.53 661.76 1220.1 C655.83 1214.17 649.9 1208.23 643.98 1202.29 C635.4 1193.69 626.83 1185.1 618.25 1176.51 C604.32 1162.57 590.39 1148.62 576.46 1134.66 C575.22 1133.41 575.22 1133.41 573.94 1132.14 C568.03 1126.22 562.12 1120.3 556.22 1114.38 C549.46 1107.6 542.7 1100.83 535.95 1094.06 C535.11 1093.23 534.28 1092.4 533.42 1091.54 C519.54 1077.63 505.66 1063.73 491.77 1049.83 C483.22 1041.26 474.66 1032.69 466.11 1024.11 C460.25 1018.24 454.39 1012.37 448.53 1006.5 C445.15 1003.12 441.77 999.73 438.39 996.34 C435.3 993.24 432.21 990.14 429.11 987.04 C427.99 985.92 426.87 984.8 425.76 983.68 C411.82 969.65 398.16 961.25 377.97 961 C365.55 961.19 355.72 964.04 345.16 970.76 C343.14 972.02 341.11 973.1 338.97 974.13 C338.97 974.79 338.97 975.45 338.97 976.13 C337.61 977.46 337.61 977.46 335.67 979.05 C330.04 983.85 324.87 989.09 319.65 994.33 C318.52 995.46 317.39 996.6 316.26 997.73 C313.17 1000.82 310.08 1003.92 306.99 1007.02 C303.65 1010.36 300.31 1013.71 296.97 1017.05 C291.18 1022.84 285.4 1028.63 279.62 1034.42 C271.26 1042.8 262.9 1051.17 254.54 1059.54 C240.97 1073.12 227.4 1086.71 213.83 1100.29 C212.62 1101.51 212.62 1101.51 211.37 1102.75 C199.84 1114.3 188.31 1125.85 176.78 1137.4 C175.97 1138.22 175.15 1139.03 174.31 1139.87 C173.1 1141.09 173.1 1141.09 171.85 1142.34 C158.33 1155.88 144.8 1169.43 131.27 1182.96 C122.93 1191.32 114.58 1199.67 106.24 1208.04 C100.53 1213.76 94.82 1219.47 89.11 1225.19 C85.81 1228.49 82.51 1231.79 79.22 1235.1 C76.21 1238.12 73.19 1241.14 70.18 1244.15 C69.08 1245.24 67.99 1246.34 66.89 1247.44 C65.42 1248.93 63.94 1250.4 62.45 1251.88 C61.63 1252.71 60.8 1253.53 59.96 1254.38 C57.97 1256.13 57.97 1256.13 55.97 1256.13 C55.97 1256.79 55.97 1257.45 55.97 1258.13 C55.31 1258.13 54.65 1258.13 53.97 1258.13 C53.97 1258.79 53.97 1259.45 53.97 1260.13 C52.07 1261.63 52.07 1261.63 49.59 1263.25 C48.78 1263.79 47.97 1264.33 47.13 1264.88 C44.97 1266.13 44.97 1266.13 42.97 1266.13 C42.97 1266.79 42.97 1267.45 42.97 1268.13 C40.26 1269.42 37.55 1270.71 34.84 1272 C34.08 1272.37 33.32 1272.73 32.54 1273.11 C26.03 1276.19 20.13 1278.14 12.97 1279.13 C12.64 1279.46 12.31 1279.79 11.97 1280.13 C9.17 1280.23 6.39 1280.27 3.59 1280.26 C2.75 1280.26 1.91 1280.26 1.05 1280.26 C-0.73 1280.26 -2.51 1280.26 -4.29 1280.26 C-7.02 1280.25 -9.76 1280.26 -12.49 1280.26 C-14.21 1280.26 -15.94 1280.26 -17.66 1280.26 C-18.89 1280.26 -18.89 1280.26 -20.15 1280.26 C-25.92 1280.24 -25.92 1280.24 -27.03 1279.13 C-28.27 1278.88 -29.51 1278.63 -30.78 1278.38 C-42.06 1275.93 -52.09 1270.77 -62.03 1265.13 C-62.03 1264.47 -62.03 1263.81 -62.03 1263.13 C-63.02 1263.13 -64.01 1263.13 -65.03 1263.13 C-65.03 1262.47 -65.03 1261.81 -65.03 1261.13 C-65.61 1260.86 -66.19 1260.6 -66.79 1260.32 C-73.11 1256.95 -78.95 1250.99 -83.03 1245.13 C-83.03 1244.47 -83.03 1243.81 -83.03 1243.13 C-83.69 1243.13 -84.35 1243.13 -85.03 1243.13 C-90.65 1235.44 -94.77 1227.04 -98.03 1218.13 C-98.35 1217.26 -98.67 1216.39 -99 1215.5 C-103.14 1202.04 -103.47 1187.91 -103.41 1173.95 C-103.41 1172.09 -103.41 1170.23 -103.42 1168.37 C-103.43 1163.29 -103.42 1158.21 -103.41 1153.14 C-103.4 1147.6 -103.41 1142.06 -103.41 1136.52 C-103.42 1126.83 -103.42 1117.14 -103.41 1107.44 C-103.39 1093.03 -103.39 1078.61 -103.4 1064.2 C-103.4 1039.95 -103.4 1015.69 -103.38 991.44 C-103.37 967.43 -103.36 943.41 -103.36 919.39 C-103.36 917.88 -103.36 916.38 -103.36 914.87 C-103.36 908.8 -103.36 902.73 -103.36 896.67 C-103.36 879.71 -103.36 862.76 -103.35 845.8 C-103.35 845.03 -103.35 844.26 -103.35 843.46 C-103.35 805.93 -103.33 768.4 -103.32 730.87 C-103.29 678.69 -103.28 626.52 -103.27 574.34 C-103.27 572.71 -103.27 571.09 -103.27 569.46 C-103.27 563.79 -103.27 558.12 -103.27 552.44 C-103.27 547.6 -103.27 542.75 -103.27 537.91 C-103.27 535.49 -103.27 533.07 -103.27 530.66 C-103.27 480.11 -103.26 429.56 -103.24 379.01 C-103.24 363.24 -103.24 347.47 -103.23 331.7 C-103.23 300.11 -103.22 268.53 -103.21 236.94 C-103.2 223.88 -103.19 210.81 -103.19 197.75 C-103.19 186.92 -103.19 176.09 -103.18 165.26 C-103.18 159.81 -103.17 154.36 -103.18 148.9 C-103.18 143.94 -103.18 138.98 -103.17 134.02 C-103.17 132.24 -103.17 130.45 -103.17 128.67 C-103.2 99.41 -98.14 71.11 -80.03 47.13 C-79.37 47.13 -78.71 47.13 -78.03 47.13 C-77.76 46.54 -77.48 45.96 -77.2 45.36 C-73.52 38.28 -68.16 33.11 -62.03 28.13 C-61.09 27.32 -60.14 26.52 -59.16 25.69 C-57.03 24.13 -57.03 24.13 -55.03 24.13 C-55.03 23.47 -55.03 22.81 -55.03 22.13 C-50.06 18.05 -44.65 15.32 -38.87 12.54 C-35.89 11.11 -35.89 11.11 -32.66 9 C-25.86 5 -17.36 3.59 -9.72 1.94 C-0.93 0 -0.93 0 0 0 Z M-14.03 88.13 C-22.35 98.71 -25.21 107.61 -25.16 121.02 C-25.16 122.16 -25.16 122.16 -25.17 123.32 C-25.17 125.86 -25.17 128.39 -25.16 130.93 C-25.16 132.77 -25.17 134.62 -25.17 136.47 C-25.17 141.55 -25.17 146.64 -25.17 151.73 C-25.17 157.26 -25.17 162.79 -25.18 168.32 C-25.18 178.02 -25.18 187.71 -25.18 197.41 C-25.18 211.15 -25.18 224.9 -25.19 238.64 C-25.2 266.56 -25.2 294.48 -25.2 322.4 C-25.2 325.41 -25.2 328.41 -25.2 331.42 C-25.2 332.16 -25.2 332.91 -25.2 333.68 C-25.2 350.2 -25.2 366.72 -25.21 383.24 C-25.21 390.05 -25.21 396.85 -25.21 403.65 C-25.21 404.4 -25.21 405.15 -25.21 405.93 C-25.22 449 -25.22 492.06 -25.22 535.13 C-25.22 536.74 -25.22 538.36 -25.22 539.97 C-25.22 547.25 -25.22 554.52 -25.22 561.8 C-25.22 565.04 -25.22 568.29 -25.22 571.53 C-25.22 573.16 -25.22 574.78 -25.22 576.41 C-25.22 627.79 -25.23 679.16 -25.24 730.54 C-25.24 743.49 -25.25 756.44 -25.25 769.39 C-25.25 770.18 -25.25 770.98 -25.25 771.8 C-25.26 796.36 -25.26 820.93 -25.26 845.49 C-25.26 846.26 -25.26 847.03 -25.26 847.83 C-25.26 864.75 -25.26 881.67 -25.26 898.59 C-25.26 904.65 -25.26 910.7 -25.26 916.75 C-25.26 918.26 -25.26 919.77 -25.26 921.27 C-25.26 945.29 -25.27 969.31 -25.28 993.33 C-25.29 1017.51 -25.29 1041.69 -25.28 1065.88 C-25.28 1080.89 -25.28 1095.9 -25.29 1110.91 C-25.3 1120.47 -25.29 1130.04 -25.29 1139.6 C-25.28 1145.06 -25.28 1150.52 -25.29 1155.97 C-25.3 1160.93 -25.3 1165.89 -25.29 1170.85 C-25.28 1172.64 -25.29 1174.43 -25.29 1176.22 C-25.3 1178.64 -25.29 1181.06 -25.28 1183.48 C-25.29 1184.17 -25.29 1184.87 -25.3 1185.58 C-25.26 1191.24 -24.4 1195.46 -20.78 1199.88 C-16.22 1203.61 -11.93 1204.58 -6.03 1204.36 C6.52 1202.89 16.23 1189 24.65 1180.55 C25.8 1179.4 26.95 1178.25 28.09 1177.1 C31.22 1173.97 34.35 1170.84 37.47 1167.71 C40.85 1164.32 44.23 1160.93 47.62 1157.55 C53.47 1151.69 59.32 1145.83 65.17 1139.97 C73.63 1131.49 82.1 1123.01 90.56 1114.54 C104.31 1100.78 118.05 1087.02 131.79 1073.26 C132.61 1072.44 133.44 1071.62 134.28 1070.77 C145.95 1059.08 157.63 1047.39 169.3 1035.7 C170.12 1034.88 170.94 1034.05 171.79 1033.2 C173.02 1031.97 173.02 1031.97 174.28 1030.71 C187.98 1016.99 201.68 1003.28 215.38 989.56 C223.83 981.11 232.27 972.65 240.72 964.19 C246.5 958.4 252.28 952.61 258.06 946.82 C261.4 943.48 264.74 940.14 268.07 936.79 C271.12 933.73 274.17 930.68 277.23 927.62 C278.34 926.52 279.44 925.41 280.55 924.3 C282.04 922.79 283.55 921.29 285.05 919.8 C285.89 918.96 286.72 918.12 287.58 917.26 C289.97 915.13 289.97 915.13 292.77 913.46 C293.5 913.02 294.22 912.58 294.97 912.13 C294.97 911.47 294.97 910.81 294.97 910.13 C295.5 909.87 296.04 909.61 296.59 909.34 C299.45 907.88 302.2 906.26 304.97 904.63 C308.26 902.68 311.52 900.78 314.97 899.13 C314.97 898.47 314.97 897.81 314.97 897.13 C315.67 897.02 316.37 896.92 317.09 896.81 C320.02 896.23 320.02 896.23 322.69 894.72 C326.18 893.02 329.54 892 333.28 891 C337.44 890.18 337.44 890.18 340.97 888.13 C366.52 882.28 397.87 880.66 422.5 891.11 C425.63 892.4 428.82 893.42 432.06 894.41 C433.97 895.13 433.97 895.13 436.97 897.13 C438.29 897.13 439.61 897.13 440.97 897.13 C440.97 897.79 440.97 898.45 440.97 899.13 C442.62 899.46 444.27 899.79 445.97 900.13 C445.97 900.79 445.97 901.45 445.97 902.13 C447.71 903.08 449.46 904.04 451.22 905 C452.68 905.8 452.68 905.8 454.17 906.62 C456.42 907.83 458.67 909 460.97 910.13 C460.97 910.79 460.97 911.45 460.97 912.13 C462.37 913.32 462.37 913.32 464.24 914.54 C470.26 918.92 475.35 924.25 480.58 929.53 C481.74 930.69 482.91 931.86 484.07 933.02 C487.26 936.21 490.44 939.41 493.62 942.6 C497.05 946.06 500.49 949.5 503.93 952.95 C509.89 958.92 515.84 964.89 521.79 970.86 C530.4 979.51 539.02 988.14 547.64 996.78 C561.63 1010.8 575.62 1024.82 589.61 1038.84 C590.45 1039.68 591.29 1040.52 592.15 1041.38 C604.03 1053.3 615.91 1065.21 627.78 1077.13 C628.62 1077.97 629.46 1078.8 630.32 1079.67 C631.15 1080.51 631.99 1081.35 632.85 1082.21 C646.78 1096.19 660.72 1110.16 674.67 1124.13 C683.27 1132.74 691.86 1141.36 700.45 1149.98 C706.33 1155.89 712.22 1161.79 718.11 1167.69 C721.51 1171.09 724.91 1174.5 728.3 1177.91 C731.4 1181.04 734.51 1184.15 737.63 1187.26 C738.76 1188.39 739.88 1189.52 741 1190.65 C749.88 1199.84 749.88 1199.84 761.5 1204.62 C767.85 1204.44 771.77 1202.97 776.72 1198.81 C780.86 1193.86 781.26 1188.75 781.22 1182.49 C781.22 1181.73 781.22 1180.98 781.22 1180.2 C781.23 1177.66 781.22 1175.13 781.22 1172.6 C781.22 1170.75 781.22 1168.91 781.23 1167.07 C781.23 1161.99 781.23 1156.91 781.22 1151.82 C781.22 1146.3 781.22 1140.78 781.23 1135.26 C781.24 1125.58 781.24 1115.9 781.23 1106.21 C781.22 1092.48 781.23 1078.76 781.23 1065.03 C781.24 1040.13 781.24 1015.24 781.24 990.34 C781.24 989.23 781.24 989.23 781.24 988.1 C781.24 987.37 781.24 986.63 781.24 985.86 C781.23 963.36 781.23 940.85 781.23 918.35 C781.23 916.84 781.23 915.33 781.23 913.83 C781.23 907.77 781.23 901.72 781.24 895.67 C781.24 878.75 781.24 861.82 781.24 844.9 C781.24 843.75 781.24 843.75 781.24 842.57 C781.24 818 781.24 793.44 781.23 768.88 C781.23 768.08 781.23 767.29 781.23 766.47 C781.23 753.53 781.23 740.58 781.23 727.64 C781.22 676.33 781.22 625.01 781.23 573.69 C781.23 560.76 781.23 547.84 781.23 534.91 C781.23 534.11 781.23 533.31 781.23 532.49 C781.24 507.96 781.24 483.43 781.24 458.9 C781.24 458.13 781.24 457.36 781.24 456.56 C781.24 439.66 781.24 422.75 781.24 405.85 C781.23 399.8 781.23 393.75 781.23 387.7 C781.23 386.19 781.23 384.69 781.23 383.18 C781.23 360.69 781.23 338.19 781.24 315.69 C781.24 314.95 781.24 314.22 781.24 313.46 C781.24 312.72 781.24 311.98 781.24 311.22 C781.24 286.4 781.24 261.57 781.23 236.74 C781.23 222.42 781.23 208.1 781.23 193.78 C781.24 184.22 781.23 174.66 781.23 165.11 C781.22 159.66 781.22 154.21 781.23 148.76 C781.23 143.8 781.23 138.84 781.22 133.88 C781.22 132.1 781.22 130.32 781.22 128.53 C781.26 116.61 781.23 105.64 774.97 95.13 C774.63 94.53 774.29 93.93 773.95 93.32 C768.52 84.69 758.13 78.9 748.41 76.55 C743.48 75.7 738.5 75.85 733.51 75.87 C732.27 75.87 731.02 75.86 729.73 75.86 C726.26 75.85 722.8 75.86 719.33 75.86 C715.56 75.87 711.79 75.86 708.02 75.85 C701.41 75.84 694.81 75.84 688.2 75.85 C678.37 75.85 668.54 75.85 658.72 75.84 C640.15 75.82 621.58 75.82 603.01 75.82 C588.67 75.82 574.33 75.82 559.99 75.82 C557.93 75.82 555.87 75.82 553.81 75.82 C550.71 75.82 547.61 75.82 544.5 75.81 C515.65 75.81 486.79 75.8 457.94 75.81 C456.85 75.81 455.76 75.81 454.64 75.81 C449.13 75.81 443.61 75.81 438.1 75.81 C437 75.81 435.91 75.81 434.78 75.81 C432.56 75.81 430.35 75.81 428.13 75.81 C393.67 75.82 359.2 75.81 324.73 75.79 C286.02 75.77 247.3 75.76 208.59 75.76 C204.46 75.76 200.34 75.76 196.21 75.76 C195.19 75.76 194.18 75.76 193.13 75.76 C177.78 75.76 162.43 75.76 147.08 75.75 C129.63 75.73 112.18 75.73 94.72 75.75 C84.95 75.75 75.18 75.75 65.42 75.74 C58.89 75.73 52.37 75.73 45.84 75.74 C42.12 75.75 38.41 75.75 34.69 75.74 C30.68 75.73 26.67 75.74 22.67 75.75 C21.52 75.74 20.36 75.74 19.18 75.73 C6.93 75.81 -5.06 79.39 -14.03 88.13 Z " fill="#000000" transform="translate(262.0346622467041,-0.12534916400909424)"/>
</svg>
