<?xml version="1.0" encoding="UTF-8"?>
<!-- Generator: visioncortex VTracer 0.6.3 -->
<svg version="1.1" xmlns="http://www.w3.org/2000/svg" width="1280" height="1280">
<path d="M0 0 C2.59 -0 5.19 -0.04 7.78 -0.08 C26.12 -0.2 43.13 5.21 57.3 17.37 C57.3 18.03 57.3 18.69 57.3 19.37 C57.96 19.37 58.62 19.37 59.3 19.37 C60.92 20.75 60.92 20.75 62.3 22.37 C62.3 23.03 62.3 23.69 62.3 24.37 C62.96 24.37 63.62 24.37 64.3 24.37 C66.01 26.59 67.57 28.79 69.11 31.12 C69.56 31.8 70.01 32.48 70.47 33.18 C75.53 41.02 79.46 48.98 80.3 58.37 C80.63 58.7 80.96 59.03 81.3 59.37 C81.4 62.24 81.44 65.09 81.43 67.96 C81.43 68.83 81.43 69.69 81.43 70.58 C81.43 72.4 81.43 74.23 81.43 76.05 C81.42 78.86 81.43 81.66 81.43 84.47 C81.43 86.24 81.43 88.01 81.43 89.78 C81.43 91.04 81.43 91.04 81.44 92.34 C81.41 98.26 81.41 98.26 80.3 99.37 C79.99 100.74 79.73 102.12 79.48 103.5 C77.6 113.23 75.16 122.73 71.29 131.87 C69.73 135.8 68.57 139.84 67.36 143.89 C65.66 149.45 63.79 154.95 61.94 160.46 C60.88 163.6 59.84 166.73 58.8 169.87 C17.55 293.62 -23.7 417.37 -282.46 1193.61 C-283.29 1196.14 -284.12 1198.66 -284.92 1201.19 C-287.61 1209.57 -290.77 1217.49 -294.7 1225.37 C-295.15 1226.28 -295.6 1227.19 -296.07 1228.13 C-300.42 1236.53 -306.31 1247.26 -313.7 1253.37 C-314.36 1253.37 -315.02 1253.37 -315.7 1253.37 C-316.03 1254.36 -316.36 1255.35 -316.7 1256.37 C-317.36 1256.37 -318.02 1256.37 -318.7 1256.37 C-318.7 1257.03 -318.7 1257.69 -318.7 1258.37 C-319.36 1258.37 -320.02 1258.37 -320.7 1258.37 C-320.7 1259.03 -320.7 1259.69 -320.7 1260.37 C-331.02 1269.68 -345.99 1277.52 -359.7 1279.37 C-360.03 1279.7 -360.36 1280.03 -360.7 1280.37 C-365.56 1280.67 -370.42 1280.69 -375.28 1280.72 C-376.91 1280.74 -378.54 1280.76 -380.17 1280.8 C-395.1 1281.16 -407.84 1278.52 -421.14 1271.43 C-422.14 1270.92 -422.14 1270.92 -423.15 1270.39 C-431.26 1266.13 -438.35 1260.99 -445.44 1255.2 C-446.92 1254 -448.44 1252.85 -450 1251.76 C-450.56 1251.3 -451.12 1250.84 -451.7 1250.37 C-451.7 1249.71 -451.7 1249.05 -451.7 1248.37 C-452.36 1248.37 -453.02 1248.37 -453.7 1248.37 C-463.13 1238.45 -468.74 1224.54 -474.7 1212.37 C-478.47 1204.73 -482.37 1197.19 -486.37 1189.67 C-489.59 1183.62 -492.67 1177.51 -495.7 1171.37 C-497.95 1166.82 -500.3 1162.34 -502.7 1157.87 C-504.04 1155.37 -505.38 1152.87 -506.7 1150.37 C-507.57 1148.75 -507.57 1148.75 -508.45 1147.09 C-509.7 1144.37 -509.7 1144.37 -509.7 1141.37 C-510.36 1141.37 -511.02 1141.37 -511.7 1141.37 C-511.94 1140.85 -512.19 1140.32 -512.43 1139.79 C-518.41 1126.79 -518.41 1126.79 -525.49 1114.38 C-527.23 1111.49 -528.43 1108.49 -529.7 1105.37 C-530.36 1104.38 -531.02 1103.39 -531.7 1102.37 C-531.7 1101.05 -531.7 1099.73 -531.7 1098.37 C-532.36 1098.37 -533.02 1098.37 -533.7 1098.37 C-533.95 1097.84 -534.2 1097.31 -534.45 1096.77 C-535.59 1094.32 -536.74 1091.88 -537.89 1089.43 C-538.28 1088.6 -538.67 1087.77 -539.06 1086.92 C-541.37 1082.01 -543.83 1077.24 -546.49 1072.52 C-548.39 1069.15 -550.2 1065.73 -552.02 1062.31 C-552.4 1061.58 -552.79 1060.85 -553.19 1060.09 C-556.07 1054.62 -558.86 1049.11 -561.59 1043.56 C-563.48 1039.76 -565.42 1035.99 -567.43 1032.25 C-567.89 1031.39 -568.35 1030.52 -568.82 1029.63 C-569.73 1027.94 -570.64 1026.26 -571.55 1024.58 C-571.96 1023.81 -572.37 1023.05 -572.8 1022.26 C-573.16 1021.58 -573.53 1020.9 -573.91 1020.2 C-574.7 1018.37 -574.7 1018.37 -574.7 1015.37 C-575.36 1015.37 -576.02 1015.37 -576.7 1015.37 C-577.1 1014.41 -577.49 1013.44 -577.9 1012.44 C-579.86 1007.89 -582.18 1003.55 -584.52 999.18 C-587.32 993.9 -590.12 988.61 -592.77 983.25 C-595.16 978.41 -597.67 973.64 -600.2 968.87 C-603.81 962.09 -607.3 955.26 -610.7 948.37 C-612.95 943.82 -615.3 939.34 -617.7 934.87 C-619.04 932.37 -620.38 929.87 -621.7 927.37 C-622.28 926.29 -622.86 925.2 -623.45 924.09 C-624.7 921.37 -624.7 921.37 -624.7 918.37 C-625.36 918.37 -626.02 918.37 -626.7 918.37 C-627.5 916.64 -627.5 916.64 -628.32 914.88 C-633.78 903.19 -639.62 891.75 -645.7 880.37 C-647.29 877.39 -648.87 874.41 -650.45 871.43 C-650.82 870.73 -651.19 870.04 -651.58 869.32 C-654.72 863.38 -657.73 857.39 -660.7 851.37 C-662.85 847.03 -665.09 842.76 -667.39 838.5 C-670.16 833.33 -672.85 828.13 -675.45 822.87 C-679.32 815.06 -683.34 807.32 -687.42 799.62 C-691.73 791.46 -691.73 791.46 -693.38 787.44 C-696.96 778.93 -701.4 776.86 -709.7 773.37 C-712.63 771.91 -715.51 770.36 -718.39 768.81 C-719.12 768.42 -719.85 768.03 -720.61 767.63 C-725.1 765.25 -729.55 762.81 -733.94 760.25 C-735.84 759.3 -737.64 758.81 -739.7 758.37 C-739.7 757.71 -739.7 757.05 -739.7 756.37 C-740.8 756.19 -740.8 756.19 -741.92 756.01 C-744.68 755.38 -746.7 754.5 -749.17 753.16 C-749.99 752.72 -750.81 752.28 -751.65 751.83 C-752.49 751.37 -753.34 750.91 -754.2 750.43 C-761.28 746.53 -761.28 746.53 -768.7 743.37 C-768.7 742.71 -768.7 742.05 -768.7 741.37 C-769.73 741.24 -769.73 741.24 -770.77 741.1 C-774.4 740.2 -777.41 738.55 -780.64 736.75 C-781.98 736.01 -783.32 735.28 -784.67 734.55 C-785.68 734 -785.68 734 -786.71 733.44 C-789.68 731.85 -792.69 730.36 -795.7 728.87 C-801.23 726.13 -806.67 723.27 -812.1 720.35 C-816.26 718.12 -820.47 715.97 -824.7 713.87 C-829.58 711.45 -834.41 708.95 -839.2 706.37 C-847.09 702.13 -855.09 698.13 -863.13 694.18 C-867.24 692.14 -871.32 690.05 -875.37 687.91 C-876.21 687.46 -877.06 687.02 -877.93 686.56 C-879.62 685.66 -881.32 684.75 -883.02 683.85 C-886.85 681.81 -890.61 679.86 -894.7 678.37 C-894.7 677.71 -894.7 677.05 -894.7 676.37 C-895.37 676.29 -896.04 676.2 -896.73 676.11 C-900.56 675.16 -903.78 673.39 -907.2 671.5 C-908.18 670.97 -908.18 670.97 -909.18 670.43 C-911.97 668.91 -914.73 667.35 -917.46 665.71 C-920.42 663.94 -923.52 662.69 -926.7 661.37 C-928.02 660.81 -929.33 660.25 -930.64 659.68 C-932.16 659.03 -932.16 659.03 -933.7 658.37 C-933.7 657.71 -933.7 657.05 -933.7 656.37 C-934.34 656.3 -934.99 656.23 -935.65 656.16 C-939.99 655.04 -943.65 652.94 -947.58 650.81 C-948.42 650.36 -949.27 649.91 -950.14 649.44 C-953.97 647.39 -957.8 645.32 -961.62 643.25 C-962.81 642.6 -964.01 641.95 -965.2 641.31 C-965.79 640.99 -966.38 640.67 -966.99 640.35 C-972.89 637.2 -978.95 634.41 -985.01 631.59 C-989.85 629.31 -994.4 626.83 -998.92 623.96 C-1002.9 621.68 -1007.05 619.8 -1011.2 617.87 C-1017 615.18 -1022.52 612.39 -1027.92 608.96 C-1031.9 606.68 -1036.05 604.8 -1040.2 602.87 C-1046 600.18 -1051.51 597.4 -1056.91 593.97 C-1061.75 591.2 -1066.85 588.93 -1071.93 586.62 C-1076.49 584.52 -1080.52 582.17 -1084.7 579.37 C-1087.03 578.35 -1089.36 577.35 -1091.7 576.37 C-1094.42 575.01 -1097.09 573.57 -1099.77 572.12 C-1105.08 569.27 -1110.42 566.48 -1115.83 563.81 C-1121.26 561.12 -1126.61 558.3 -1131.94 555.43 C-1135.92 553.29 -1139.94 551.25 -1144 549.27 C-1150.56 546.05 -1156.8 542.72 -1162.7 538.37 C-1163.81 537.61 -1163.81 537.61 -1164.94 536.83 C-1165.52 536.35 -1166.1 535.87 -1166.7 535.37 C-1166.7 534.71 -1166.7 534.05 -1166.7 533.37 C-1167.36 533.37 -1168.02 533.37 -1168.7 533.37 C-1170.65 531.25 -1170.65 531.25 -1172.83 528.5 C-1173.91 527.14 -1173.91 527.14 -1175.02 525.75 C-1176.7 523.37 -1176.7 523.37 -1176.7 521.37 C-1177.36 521.37 -1178.02 521.37 -1178.7 521.37 C-1181.31 517.89 -1183.47 514.1 -1185.7 510.37 C-1186.25 509.46 -1186.79 508.55 -1187.36 507.61 C-1190.67 501.83 -1193 496.09 -1194.94 489.71 C-1195.49 487.44 -1195.49 487.44 -1196.7 486.37 C-1197.04 484.04 -1197.37 481.7 -1197.7 479.37 C-1198.03 479.04 -1198.36 478.71 -1198.7 478.37 C-1198.84 475.86 -1198.92 473.37 -1198.94 470.85 C-1198.95 470.09 -1198.96 469.32 -1198.97 468.53 C-1198.98 466.9 -1198.99 465.26 -1199 463.63 C-1199.02 461.17 -1199.06 458.72 -1199.1 456.26 C-1199.23 443.48 -1196.88 432.68 -1190.95 421.25 C-1190.61 420.58 -1190.28 419.92 -1189.93 419.23 C-1186.79 413.24 -1183.25 407.41 -1178.7 402.37 C-1178.04 402.37 -1177.38 402.37 -1176.7 402.37 C-1176.43 401.73 -1176.17 401.09 -1175.89 400.43 C-1174.7 398.37 -1174.7 398.37 -1171.7 397.37 C-1171.37 396.38 -1171.04 395.39 -1170.7 394.37 C-1170.04 394.37 -1169.38 394.37 -1168.7 394.37 C-1168.7 393.71 -1168.7 393.05 -1168.7 392.37 C-1167.24 391.08 -1167.24 391.08 -1165.33 389.75 C-1164.7 389.3 -1164.07 388.85 -1163.43 388.39 C-1161.7 387.37 -1161.7 387.37 -1159.7 387.37 C-1159.7 386.71 -1159.7 386.05 -1159.7 385.37 C-1149.54 378.05 -1138.36 373.09 -1126.49 369.27 C-1122.16 367.87 -1117.93 366.23 -1113.68 364.59 C-1109.4 362.95 -1105.11 361.63 -1100.7 360.37 C-1099.37 359.88 -1098.03 359.38 -1096.7 358.87 C-1093.09 357.48 -1089.43 356.43 -1085.7 355.37 C-1084.37 354.88 -1083.03 354.38 -1081.7 353.87 C-1078.09 352.48 -1074.43 351.43 -1070.7 350.37 C-1069.37 349.88 -1068.03 349.38 -1066.7 348.87 C-1063.09 347.48 -1059.43 346.43 -1055.7 345.37 C-1054.37 344.88 -1053.03 344.38 -1051.7 343.87 C-1048.09 342.48 -1044.43 341.43 -1040.7 340.37 C-1039.37 339.88 -1038.03 339.38 -1036.7 338.87 C-1033.09 337.48 -1029.43 336.43 -1025.7 335.37 C-1024.37 334.88 -1023.03 334.38 -1021.7 333.87 C-1018.09 332.48 -1014.43 331.43 -1010.7 330.37 C-1009.37 329.88 -1008.03 329.38 -1006.7 328.87 C-1003.09 327.48 -999.43 326.43 -995.7 325.37 C-994.37 324.88 -993.03 324.38 -991.7 323.87 C-988.09 322.48 -984.43 321.43 -980.7 320.37 C-979.37 319.88 -978.03 319.38 -976.7 318.87 C-973.09 317.48 -969.43 316.43 -965.7 315.37 C-964.37 314.88 -963.03 314.38 -961.7 313.87 C-958.09 312.48 -954.43 311.43 -950.7 310.37 C-949.37 309.88 -948.03 309.38 -946.7 308.87 C-943.09 307.48 -939.43 306.43 -935.7 305.37 C-934.37 304.88 -933.03 304.38 -931.7 303.87 C-928.09 302.48 -924.43 301.43 -920.7 300.37 C-919.37 299.88 -918.03 299.38 -916.7 298.87 C-913.09 297.48 -909.43 296.43 -905.7 295.37 C-904.37 294.88 -903.03 294.38 -901.7 293.87 C-898.09 292.48 -894.43 291.43 -890.7 290.37 C-889.37 289.88 -888.03 289.38 -886.7 288.87 C-883.09 287.48 -879.43 286.43 -875.7 285.37 C-874.37 284.88 -873.03 284.38 -871.7 283.87 C-868.09 282.48 -864.43 281.43 -860.7 280.37 C-859.37 279.88 -858.03 279.38 -856.7 278.87 C-853.09 277.48 -849.43 276.43 -845.7 275.37 C-844.37 274.88 -843.03 274.38 -841.7 273.87 C-838.09 272.48 -834.43 271.43 -830.7 270.37 C-829.37 269.88 -828.03 269.38 -826.7 268.87 C-823.09 267.48 -819.43 266.43 -815.7 265.37 C-814.37 264.88 -813.03 264.38 -811.7 263.87 C-808.09 262.48 -804.43 261.43 -800.7 260.37 C-799.37 259.88 -798.03 259.38 -796.7 258.87 C-793.09 257.48 -789.43 256.43 -785.7 255.37 C-784.37 254.88 -783.03 254.38 -781.7 253.87 C-778.09 252.48 -774.43 251.43 -770.7 250.37 C-769.37 249.88 -768.03 249.38 -766.7 248.87 C-763.09 247.48 -759.43 246.43 -755.7 245.37 C-754.37 244.88 -753.03 244.38 -751.7 243.87 C-748.09 242.48 -744.43 241.43 -740.7 240.37 C-739.37 239.88 -738.03 239.38 -736.7 238.87 C-733.09 237.48 -729.43 236.43 -725.7 235.37 C-724.37 234.88 -723.03 234.38 -721.7 233.87 C-718.09 232.48 -714.43 231.43 -710.7 230.37 C-709.37 229.88 -708.03 229.38 -706.7 228.87 C-703.09 227.48 -699.43 226.43 -695.7 225.37 C-694.37 224.88 -693.03 224.38 -691.7 223.87 C-688.09 222.48 -684.43 221.43 -680.7 220.37 C-679.37 219.88 -678.03 219.38 -676.7 218.87 C-673.09 217.48 -669.43 216.43 -665.7 215.37 C-664.37 214.88 -663.03 214.38 -661.7 213.87 C-658.09 212.48 -654.43 211.43 -650.7 210.37 C-649.37 209.88 -648.03 209.38 -646.7 208.87 C-643.09 207.48 -639.43 206.43 -635.7 205.37 C-634.37 204.88 -633.03 204.38 -631.7 203.87 C-628.09 202.48 -624.43 201.43 -620.7 200.37 C-619.37 199.88 -618.03 199.38 -616.7 198.87 C-613.09 197.48 -609.43 196.43 -605.7 195.37 C-604.37 194.88 -603.03 194.38 -601.7 193.87 C-598.09 192.48 -594.43 191.43 -590.7 190.37 C-589.37 189.88 -588.03 189.38 -586.7 188.87 C-583.09 187.48 -579.43 186.43 -575.7 185.37 C-574.37 184.88 -573.03 184.38 -571.7 183.87 C-568.09 182.48 -564.43 181.43 -560.7 180.37 C-559.37 179.88 -558.03 179.38 -556.7 178.87 C-553.09 177.48 -549.43 176.43 -545.7 175.37 C-544.37 174.88 -543.03 174.38 -541.7 173.87 C-538.09 172.48 -534.43 171.43 -530.7 170.37 C-529.37 169.88 -528.03 169.38 -526.7 168.87 C-523.09 167.48 -519.43 166.43 -515.7 165.37 C-514.37 164.88 -513.03 164.38 -511.7 163.87 C-508.09 162.48 -504.43 161.43 -500.7 160.37 C-499.37 159.88 -498.03 159.38 -496.7 158.87 C-493.09 157.48 -489.43 156.43 -485.7 155.37 C-484.37 154.88 -483.03 154.38 -481.7 153.87 C-478.09 152.48 -474.43 151.43 -470.7 150.37 C-469.37 149.88 -468.03 149.38 -466.7 148.87 C-463.09 147.48 -459.43 146.43 -455.7 145.37 C-454.37 144.88 -453.03 144.38 -451.7 143.87 C-448.09 142.48 -444.43 141.43 -440.7 140.37 C-439.37 139.88 -438.03 139.38 -436.7 138.87 C-433.09 137.48 -429.43 136.43 -425.7 135.37 C-424.37 134.88 -423.03 134.38 -421.7 133.87 C-418.09 132.48 -414.43 131.43 -410.7 130.37 C-409.37 129.88 -408.03 129.38 -406.7 128.87 C-403.09 127.48 -399.43 126.43 -395.7 125.37 C-394.37 124.88 -393.03 124.38 -391.7 123.87 C-388.09 122.48 -384.43 121.43 -380.7 120.37 C-379.37 119.88 -378.03 119.38 -376.7 118.87 C-373.09 117.48 -369.43 116.43 -365.7 115.37 C-363.75 114.66 -361.82 113.92 -359.89 113.15 C-358.12 112.52 -356.33 111.98 -354.52 111.46 C-350.16 110.22 -345.88 108.81 -341.58 107.37 C-340.4 106.98 -340.4 106.98 -339.2 106.58 C-336.13 105.56 -333.09 104.53 -330.09 103.31 C-327.01 102.1 -323.88 101.27 -320.7 100.37 C-317.65 99.4 -314.61 98.39 -311.58 97.37 C-310.4 96.98 -310.4 96.98 -309.2 96.58 C-305.31 95.28 -301.5 93.91 -297.7 92.37 C-296.61 92.06 -295.52 91.75 -294.39 91.43 C-291.13 90.49 -288.04 89.4 -284.89 88.15 C-283.12 87.52 -281.33 86.98 -279.52 86.46 C-275.16 85.22 -270.88 83.81 -266.58 82.37 C-265.4 81.98 -265.4 81.98 -264.2 81.58 C-260.31 80.28 -256.5 78.91 -252.7 77.37 C-251.61 77.06 -250.52 76.75 -249.39 76.43 C-246.74 75.67 -244.26 74.86 -241.7 73.87 C-238.09 72.48 -234.43 71.43 -230.7 70.37 C-229.37 69.88 -228.03 69.38 -226.7 68.87 C-223.09 67.48 -219.43 66.43 -215.7 65.37 C-214.37 64.88 -213.03 64.38 -211.7 63.87 C-208.09 62.48 -204.43 61.43 -200.7 60.37 C-199.37 59.88 -198.03 59.38 -196.7 58.87 C-193.09 57.48 -189.43 56.43 -185.7 55.37 C-184.37 54.88 -183.03 54.38 -181.7 53.87 C-178.09 52.48 -174.43 51.43 -170.7 50.37 C-169.37 49.88 -168.03 49.38 -166.7 48.87 C-163.09 47.48 -159.43 46.43 -155.7 45.37 C-154.37 44.88 -153.03 44.38 -151.7 43.87 C-148.09 42.48 -144.43 41.43 -140.7 40.37 C-138.75 39.66 -136.82 38.92 -134.89 38.15 C-131.87 37.07 -128.79 36.25 -125.7 35.37 C-123.22 34.57 -120.74 33.76 -118.27 32.93 C-117.61 32.71 -116.95 32.49 -116.27 32.27 C-112.89 31.13 -109.53 29.96 -106.2 28.68 C-102.74 27.38 -99.26 26.39 -95.7 25.37 C-93.75 24.66 -91.82 23.92 -89.89 23.15 C-86.87 22.07 -83.79 21.25 -80.7 20.37 C-78.37 19.61 -76.03 18.84 -73.7 18.06 C-72.38 17.61 -71.05 17.17 -69.72 16.72 C-68.72 16.38 -68.72 16.38 -67.69 16.04 C-64.59 15 -61.49 13.97 -58.39 12.93 C-55.57 11.99 -55.57 11.99 -52.76 11.06 C-36.7 5.7 -36.7 5.7 -34.6 5.01 C-33 4.47 -31.4 3.9 -29.8 3.32 C-19.87 0.28 -10.31 -0 0 0 Z M-75.7 100.37 C-76.51 100.64 -77.32 100.91 -78.16 101.19 C-81.94 102.46 -85.73 103.73 -89.52 105 C-90.54 105.34 -90.54 105.34 -91.58 105.69 C-100.62 108.7 -109.66 111.68 -118.76 114.48 C-122.8 115.73 -126.75 117.11 -130.69 118.62 C-134.1 119.9 -137.56 121.04 -141.02 122.18 C-141.78 122.44 -142.55 122.69 -143.34 122.96 C-149.92 125.14 -156.53 127.23 -163.16 129.28 C-167.4 130.6 -171.57 132.04 -175.72 133.63 C-179.12 134.9 -182.57 136.04 -186.02 137.18 C-186.78 137.44 -187.55 137.69 -188.34 137.96 C-194.92 140.14 -201.53 142.23 -208.16 144.28 C-212.4 145.6 -216.57 147.04 -220.72 148.63 C-224.12 149.9 -227.57 151.04 -231.02 152.18 C-231.78 152.44 -232.55 152.69 -233.34 152.96 C-239.92 155.14 -246.53 157.23 -253.16 159.28 C-257.4 160.6 -261.57 162.04 -265.72 163.63 C-269.12 164.9 -272.57 166.04 -276.02 167.18 C-276.78 167.44 -277.55 167.69 -278.34 167.96 C-284.92 170.14 -291.53 172.23 -298.16 174.28 C-302.4 175.6 -306.57 177.04 -310.72 178.63 C-314.12 179.9 -317.57 181.04 -321.02 182.18 C-321.78 182.44 -322.55 182.69 -323.34 182.96 C-329.92 185.14 -336.53 187.23 -343.16 189.28 C-347.4 190.6 -351.57 192.04 -355.72 193.63 C-359.12 194.9 -362.57 196.04 -366.02 197.18 C-366.78 197.44 -367.55 197.69 -368.34 197.96 C-374.92 200.14 -381.53 202.23 -388.16 204.28 C-392.4 205.6 -396.57 207.04 -400.72 208.63 C-404.12 209.9 -407.57 211.04 -411.02 212.18 C-411.78 212.44 -412.55 212.69 -413.34 212.96 C-419.92 215.14 -426.53 217.23 -433.16 219.28 C-437.4 220.6 -441.57 222.04 -445.72 223.63 C-449.12 224.9 -452.57 226.04 -456.02 227.18 C-456.78 227.44 -457.55 227.69 -458.34 227.96 C-464.92 230.14 -471.53 232.23 -478.16 234.28 C-482.4 235.6 -486.57 237.04 -490.72 238.63 C-494.12 239.9 -497.57 241.04 -501.02 242.18 C-501.78 242.44 -502.55 242.69 -503.34 242.96 C-509.92 245.14 -516.53 247.23 -523.16 249.28 C-527.4 250.6 -531.57 252.04 -535.72 253.63 C-539.12 254.9 -542.57 256.04 -546.02 257.18 C-546.78 257.44 -547.55 257.69 -548.34 257.96 C-554.92 260.14 -561.53 262.23 -568.16 264.28 C-572.4 265.6 -576.57 267.04 -580.72 268.63 C-584.12 269.9 -587.57 271.04 -591.02 272.18 C-591.78 272.44 -592.55 272.69 -593.34 272.96 C-599.92 275.14 -606.53 277.23 -613.16 279.28 C-617.4 280.6 -621.57 282.04 -625.72 283.63 C-629.12 284.9 -632.57 286.04 -636.02 287.18 C-636.78 287.44 -637.55 287.69 -638.34 287.96 C-644.92 290.14 -651.53 292.23 -658.16 294.28 C-662.4 295.6 -666.57 297.04 -670.72 298.63 C-674.12 299.9 -677.57 301.04 -681.02 302.18 C-681.78 302.44 -682.55 302.69 -683.34 302.96 C-689.92 305.14 -696.53 307.23 -703.16 309.28 C-707.4 310.6 -711.57 312.04 -715.72 313.63 C-719.12 314.9 -722.57 316.04 -726.02 317.18 C-726.78 317.44 -727.55 317.69 -728.34 317.96 C-734.92 320.14 -741.53 322.23 -748.16 324.28 C-752.4 325.6 -756.57 327.04 -760.72 328.63 C-764.12 329.9 -767.57 331.04 -771.02 332.18 C-771.78 332.44 -772.55 332.69 -773.34 332.96 C-779.92 335.14 -786.53 337.23 -793.16 339.28 C-797.4 340.6 -801.57 342.04 -805.72 343.63 C-809.12 344.9 -812.57 346.04 -816.02 347.18 C-816.78 347.44 -817.55 347.69 -818.34 347.96 C-824.92 350.14 -831.53 352.23 -838.16 354.28 C-842.42 355.61 -846.6 357.05 -850.77 358.64 C-853.92 359.83 -857.13 360.88 -860.33 361.93 C-861.89 362.45 -863.46 362.97 -865.03 363.49 C-866.35 363.92 -866.35 363.92 -867.69 364.37 C-870.53 365.31 -873.36 366.26 -876.2 367.22 C-878.85 368.11 -881.5 369 -884.15 369.89 C-885.46 370.33 -886.77 370.77 -888.08 371.21 C-895.12 373.59 -902.14 375.86 -909.34 377.7 C-912.65 378.64 -915.75 379.95 -918.92 381.27 C-926.99 384.46 -935.34 386.97 -943.64 389.5 C-948.41 390.95 -953.05 392.56 -957.7 394.37 C-959.06 394.89 -960.41 395.42 -961.77 395.93 C-962.35 396.16 -962.94 396.39 -963.55 396.62 C-965.3 397.23 -967.07 397.76 -968.85 398.26 C-972.74 399.37 -976.58 400.59 -980.43 401.84 C-981.16 402.08 -981.89 402.31 -982.64 402.56 C-985.02 403.33 -987.39 404.1 -989.77 404.87 C-990.58 405.13 -991.39 405.4 -992.23 405.67 C-1003.67 409.39 -1015.1 413.14 -1026.52 416.93 C-1027.73 417.34 -1028.95 417.74 -1030.21 418.16 C-1036.09 420.12 -1041.92 422.14 -1047.7 424.37 C-1052.66 426.28 -1057.59 427.91 -1062.7 429.37 C-1064.65 430.08 -1066.59 430.82 -1068.52 431.59 C-1070.29 432.22 -1072.09 432.77 -1073.9 433.28 C-1078.15 434.5 -1082.33 435.89 -1086.52 437.31 C-1091.39 438.96 -1096.23 440.55 -1101.2 441.87 C-1107.7 443.75 -1113.13 447.65 -1118.7 451.37 C-1118.7 452.03 -1118.7 452.69 -1118.7 453.37 C-1119.36 453.37 -1120.02 453.37 -1120.7 453.37 C-1122.85 456.85 -1123.23 459.32 -1122.7 463.37 C-1118.83 473.34 -1113.35 478.41 -1103.95 483.12 C-1102.25 483.99 -1100.55 484.87 -1098.85 485.74 C-1097.56 486.4 -1097.56 486.4 -1096.25 487.07 C-1092.34 489.07 -1088.46 491.12 -1084.58 493.18 C-1083.87 493.56 -1083.17 493.93 -1082.44 494.31 C-1078.17 496.57 -1073.94 498.88 -1069.76 501.3 C-1067.43 502.51 -1065.04 503.5 -1062.63 504.51 C-1059.2 506.04 -1055.93 507.84 -1052.64 509.62 C-1047.32 512.47 -1041.99 515.26 -1036.58 517.93 C-1031.1 520.65 -1025.69 523.49 -1020.31 526.39 C-1016.14 528.62 -1011.94 530.77 -1007.7 532.87 C-1002.82 535.29 -998 537.79 -993.2 540.37 C-985.31 544.61 -977.31 548.61 -969.27 552.57 C-962.77 555.79 -956.36 559.18 -949.94 562.57 C-945.18 565.09 -940.4 567.54 -935.58 569.93 C-930.31 572.55 -925.09 575.24 -919.89 578 C-919.17 578.38 -918.44 578.76 -917.7 579.16 C-913.22 581.53 -908.8 583.98 -904.46 586.59 C-902.41 587.64 -902.41 587.64 -898.7 587.37 C-898.7 588.03 -898.7 588.69 -898.7 589.37 C-898.21 589.6 -897.71 589.83 -897.2 590.07 C-886.83 594.9 -876.6 599.89 -866.55 605.36 C-863.26 607.16 -859.95 608.92 -856.64 610.68 C-855.73 611.17 -855.73 611.17 -854.8 611.67 C-853.1 612.58 -851.4 613.47 -849.7 614.37 C-848.63 614.94 -847.56 615.51 -846.46 616.1 C-843.75 617.58 -843.75 617.58 -840.7 617.37 C-840.7 618.03 -840.7 618.69 -840.7 619.37 C-837.66 620.83 -834.62 622.29 -831.58 623.75 C-830.72 624.16 -829.87 624.57 -828.98 625 C-824.62 627.08 -820.35 628.98 -815.7 630.37 C-815.7 631.03 -815.7 631.69 -815.7 632.37 C-814.8 632.74 -813.89 633.11 -812.95 633.5 C-803.23 637.68 -793.92 642.82 -784.56 647.76 C-780.55 649.88 -776.53 651.99 -772.45 654 C-768.22 656.08 -764.05 658.28 -759.89 660.5 C-759.26 660.83 -758.62 661.17 -757.97 661.52 C-755.27 662.96 -752.6 664.43 -749.98 666.02 C-747.01 667.78 -743.88 669.02 -740.7 670.37 C-739.71 671.03 -738.72 671.69 -737.7 672.37 C-736.38 672.37 -735.06 672.37 -733.7 672.37 C-733.7 673.03 -733.7 673.69 -733.7 674.37 C-732.52 674.92 -731.33 675.46 -730.11 676.02 C-721.42 680.06 -712.94 684.25 -704.65 689.05 C-698.98 692.3 -693.14 695.1 -687.2 697.81 C-684.2 699.18 -681.45 700.54 -678.7 702.37 C-674.31 702.14 -672.29 700.45 -669.24 697.41 C-668.37 696.54 -667.5 695.68 -666.61 694.8 C-665.65 693.83 -664.69 692.86 -663.73 691.89 C-662.71 690.87 -661.68 689.85 -660.65 688.82 C-657.81 686 -654.99 683.16 -652.16 680.32 C-649.09 677.24 -646.01 674.17 -642.94 671.1 C-637.54 665.7 -632.15 660.31 -626.76 654.9 C-618.75 646.87 -610.73 638.85 -602.7 630.83 C-589.21 617.34 -575.72 603.84 -562.24 590.33 C-548.89 576.96 -535.53 563.58 -522.17 550.22 C-520.93 548.97 -520.93 548.97 -519.66 547.7 C-515.44 543.49 -511.23 539.27 -507.01 535.05 C-477.13 505.17 -447.27 475.27 -417.41 445.37 C-388.39 416.32 -359.37 387.28 -330.35 358.24 C-329.45 357.34 -328.56 356.45 -327.64 355.52 C-318.66 346.54 -309.68 337.55 -300.7 328.57 C-282.4 310.26 -264.11 291.96 -245.81 273.65 C-244.97 272.81 -244.13 271.97 -243.26 271.1 C-187.07 214.87 -130.88 158.62 -74.7 102.37 C-75.03 101.71 -75.36 101.05 -75.7 100.37 Z M-24.8 160.21 C-25.66 161.07 -26.53 161.93 -27.42 162.81 C-28.39 163.79 -29.35 164.76 -30.32 165.73 C-31.34 166.75 -32.37 167.77 -33.4 168.79 C-36.24 171.62 -39.08 174.46 -41.91 177.3 C-44.99 180.38 -48.07 183.46 -51.15 186.53 C-56.56 191.93 -61.96 197.33 -67.37 202.73 C-75.4 210.76 -83.44 218.79 -91.48 226.82 C-107.51 242.82 -123.53 258.83 -139.55 274.85 C-140.79 276.09 -140.79 276.09 -142.06 277.36 C-142.9 278.2 -143.73 279.03 -144.58 279.88 C-153.79 289.09 -163 298.29 -172.2 307.49 C-199.99 335.25 -227.78 363.02 -255.56 390.8 C-256.45 391.69 -257.34 392.58 -258.25 393.5 C-261.86 397.1 -265.46 400.7 -269.06 404.31 C-271.78 407.02 -274.49 409.73 -277.2 412.44 C-278.1 413.34 -278.99 414.24 -279.92 415.16 C-308.09 443.33 -336.27 471.49 -364.47 499.65 C-396.11 531.25 -427.74 562.86 -459.36 594.48 C-462.73 597.85 -466.1 601.22 -469.47 604.59 C-470.3 605.42 -471.13 606.25 -471.99 607.1 C-485.36 620.48 -498.75 633.85 -512.14 647.21 C-525.58 660.63 -539.02 674.06 -552.44 687.5 C-560.43 695.5 -568.42 703.49 -576.43 711.46 C-581.76 716.79 -587.09 722.12 -592.41 727.45 C-595.45 730.5 -598.49 733.54 -601.54 736.57 C-604.31 739.33 -607.07 742.09 -609.83 744.87 C-610.82 745.87 -611.82 746.86 -612.82 747.85 C-614.18 749.19 -615.52 750.55 -616.86 751.9 C-617.61 752.65 -618.35 753.4 -619.13 754.17 C-621.02 756.82 -621.1 758.18 -620.7 761.37 C-619.96 763.28 -619.96 763.28 -618.77 765.12 C-616.14 769.58 -613.68 774.11 -611.27 778.68 C-610.87 779.43 -610.48 780.17 -610.07 780.94 C-607.41 785.99 -604.84 791.08 -602.3 796.2 C-597.65 805.42 -592.83 814.57 -587.68 823.51 C-586.7 825.37 -586.7 825.37 -585.8 827.68 C-584.46 830.98 -582.78 834.06 -581.08 837.18 C-578.23 842.45 -575.48 847.75 -572.83 853.12 C-569.83 859.17 -566.73 865.16 -563.58 871.12 C-553.45 890.27 -553.45 890.27 -550.7 897.37 C-550.04 897.37 -549.38 897.37 -548.7 897.37 C-548.37 898.53 -548.04 899.68 -547.7 900.87 C-545.23 908.39 -541.33 915.35 -537.7 922.37 C-537.04 922.37 -536.38 922.37 -535.7 922.37 C-535.61 923.06 -535.52 923.74 -535.43 924.44 C-534.54 928.03 -532.93 930.99 -531.14 934.18 C-530.41 935.53 -529.67 936.87 -528.94 938.22 C-528.57 938.91 -528.19 939.6 -527.81 940.3 C-526.08 943.54 -524.45 946.83 -522.83 950.12 C-519.42 957 -515.87 963.8 -512.28 970.58 C-509.53 975.78 -506.87 981.01 -504.26 986.28 C-501.92 990.93 -499.46 995.51 -497.02 1000.09 C-494.36 1005.09 -491.81 1010.14 -489.3 1015.21 C-487.32 1019.13 -485.26 1023 -483.2 1026.87 C-479.18 1034.43 -475.32 1042.05 -471.54 1049.73 C-468.5 1055.88 -465.29 1061.93 -462.07 1067.99 C-459.89 1072.09 -457.76 1076.21 -455.7 1080.37 C-453.29 1085.25 -450.76 1090.06 -448.2 1094.87 C-445.15 1100.61 -442.18 1106.39 -439.3 1112.22 C-437.33 1116.12 -435.26 1119.96 -433.2 1123.81 C-429.42 1130.88 -425.95 1138.04 -422.7 1145.37 C-422.04 1145.37 -421.38 1145.37 -420.7 1145.37 C-420.61 1146.06 -420.52 1146.74 -420.43 1147.44 C-419.54 1151.03 -417.93 1153.99 -416.14 1157.18 C-415.41 1158.52 -414.68 1159.86 -413.95 1161.2 C-413.39 1162.23 -413.39 1162.23 -412.82 1163.29 C-411.04 1166.61 -409.37 1169.99 -407.7 1173.37 C-407.04 1174.7 -406.37 1176.03 -405.7 1177.36 C-404.69 1179.38 -403.69 1181.4 -402.7 1183.44 C-398.2 1192.74 -394.36 1199.44 -384.58 1203.75 C-379.73 1204.8 -376.01 1205.02 -371.7 1202.37 C-371.7 1201.71 -371.7 1201.05 -371.7 1200.37 C-371.04 1200.37 -370.38 1200.37 -369.7 1200.37 C-362.04 1191.26 -358.93 1179.44 -355.33 1168.29 C-354.31 1165.15 -353.25 1162.01 -352.2 1158.87 C-351.79 1157.63 -351.38 1156.4 -350.95 1155.12 C-309.7 1031.37 -268.45 907.62 -27.2 183.87 C-26.8 182.65 -26.39 181.42 -25.97 180.16 C-25.09 177.53 -24.2 174.9 -23.31 172.27 C-23.08 171.6 -22.86 170.92 -22.62 170.23 C-21.99 168.36 -21.35 166.48 -20.72 164.61 C-19.86 161.86 -19.2 159.21 -18.7 156.37 C-21.74 156.37 -22.68 158.09 -24.8 160.21 Z " fill="#000000" transform="translate(1198.702880859375,-0.37060546875)"/>
</svg>
